<?xml version="1.0" encoding="UTF-8" standalone="no"?>
<!-- Created with Inkscape (http://www.inkscape.org/) -->

<svg
   version="1.1"
   id="svg1"
   width="725.92743"
   height="312.6351"
   viewBox="0 0 725.92743 312.6351"
   sodipodi:docname="fsj.svg"
   inkscape:version="1.3.2 (1:1.3.2+202311252150+091e20ef0f)"
   xmlns:inkscape="http://www.inkscape.org/namespaces/inkscape"
   xmlns:sodipodi="http://sodipodi.sourceforge.net/DTD/sodipodi-0.dtd"
   xmlns="http://www.w3.org/2000/svg"
   xmlns:svg="http://www.w3.org/2000/svg">
  <defs
     id="defs1" />
  <sodipodi:namedview
     id="namedview1"
     pagecolor="#ffffff"
     bordercolor="#000000"
     borderopacity="0.25"
     inkscape:showpageshadow="2"
     inkscape:pageopacity="0.0"
     inkscape:pagecheckerboard="0"
     inkscape:deskcolor="#d1d1d1"
     showgrid="false"
     inkscape:zoom="0.52673504"
     inkscape:cx="213.57987"
     inkscape:cy="434.75369"
     inkscape:window-width="1870"
     inkscape:window-height="1011"
     inkscape:window-x="50"
     inkscape:window-y="32"
     inkscape:window-maximized="1"
     inkscape:current-layer="g1" />
  <g
     inkscape:groupmode="layer"
     inkscape:label="Image"
     id="g1"
     transform="translate(-90.369636,-146.34911)">
    <path
       style="fill:#ffffff"
       d="m 571.26282,458.0953 c -0.4889,-0.4889 -0.8889,-20.6038 -0.8889,-44.6997 v -43.81077 l 3.6667,-1.46337 c 2.0166,-0.80485 9.9666,-1.54 17.6666,-1.63366 11.8191,-0.14377 14.8309,0.2634 19.3334,2.61379 12.5049,6.52779 18.8373,23.27937 15.4015,40.74307 -2.2522,11.44794 -5.7693,17.79604 -12.2277,22.07004 -5.6885,3.7644 -14.9553,4.8566 -22.8405,2.6919 l -3.6667,-1.0066 v 12.6921 12.6921 h -7.7777 c -4.2778,0 -8.1778,-0.4 -8.6667,-0.8889 z m 31.718,-39.9394 c 6.5007,-2.4945 8.4661,-21.87331 3.0356,-29.93158 -3.3211,-4.92822 -9.4414,-7.41503 -14.886,-6.04852 l -3.4232,0.85917 v 16.57501 c 0,14.37912 0.3092,16.75502 2.3334,17.93402 2.6281,1.5308 9.6772,1.8641 12.9402,0.6119 z M 289.70725,448.8107 C 203.44733,430.5703 150.55791,408.0091 118.07146,375.59565 88.461746,346.05248 82.205456,307.34349 101.15376,270.92246 c 6.20027,-11.91769 12.94958,-20.17224 25.83284,-31.59408 58.67927,-52.02295 187.81539,-82.37822 387.38732,-91.06089 36.4748,-1.58688 189.8861,-2.58896 212.6667,-1.38913 14.4338,0.76022 14.2328,0.78962 -12.6667,1.85277 -70.4637,2.78492 -152.2085,9.12508 -210.6667,16.33939 -123.83164,15.28204 -207.91388,39.0428 -257.28268,72.70539 -17.23243,11.75009 -33.44989,29.40341 -41.27822,44.93292 -13.05489,25.89769 -9.97672,77.27501 6.23558,104.07739 6.44554,10.65583 20.88577,25.25958 32.82518,33.19688 12.66585,8.4203 35.17394,19.3376 53.12044,25.7656 8.27552,2.9641 16.2464,5.9141 17.71306,6.5555 5.34308,2.3366 -3.58493,1.1054 -25.33333,-3.4935 z m 228.28997,-13.9486 c -8.3323,-1.9621 -13.3078,-5.0621 -12.2534,-7.6347 0.5056,-1.2338 1.5185,-4.3432 2.2508,-6.9099 1.9161,-6.7161 1.7556,-6.6475 9.0599,-3.872 12.0385,4.5742 25.6265,2.809 27.219,-3.5361 1.4616,-5.82326 -1.2907,-9.49841 -10.3516,-13.82279 -4.7278,-2.25634 -9.1701,-4.10245 -9.8719,-4.10245 -3.5223,0 -12.7944,-8.68202 -15.2849,-14.31215 -4.7845,-10.81617 -0.7693,-25.78477 8.587,-32.01212 8.5214,-5.67167 25.5391,-6.22051 37.4535,-1.2079 5.5149,2.32021 5.4572,1.83309 1.5234,12.86551 -1.0152,2.84701 -2.3707,4.45766 -3.4762,4.13065 -13.102,-3.87531 -16.5299,-4.33773 -21.3812,-2.88426 -8.3627,2.50553 -8.1359,11.60393 0.3889,15.60154 22.2312,10.42505 24.0537,11.52201 27.305,16.435 4.5392,6.8592 5.606,17.49137 2.6485,26.39567 -2.515,7.572 -8.9364,13.0461 -17.6859,15.0769 -6.3301,1.4693 -19.445,1.3634 -26.1309,-0.2109 z m 130.9197,-1.6206 c -20.8552,-10.9167 -22.5708,-49.18353 -2.8189,-62.87541 4.6659,-3.23432 7.4016,-4.0627 14.7974,-4.4806 9.9065,-0.55977 13.9047,0.83858 20.6461,7.22075 6.9397,6.57001 9.5048,14.3159 9.4525,28.54459 -0.049,13.44607 -2.0032,19.39587 -8.6973,26.48507 -7.7652,8.2235 -22.9781,10.5504 -33.3798,5.1056 z m 17.3579,-14.8728 c 2.2714,-1.1745 4.6288,-4.0987 5.9338,-7.3603 5.7875,-14.46426 -1.431,-31.12237 -12.4386,-28.7047 -6.1763,1.35654 -9.3849,7.32937 -9.3911,17.4815 -0.01,10.30182 1.7576,15.3533 6.3572,18.2055 4.4814,2.7789 4.8664,2.7942 9.5387,0.378 z m 91.4324,16.9718 c -4.9592,-1.2417 -10.2984,-6.0655 -12.7927,-11.5578 -2.211,-4.8684 -2.4852,-9.1981 -2.5113,-39.64714 l -0.029,-34.18195 6.3333,-0.894 c 3.4833,-0.4917 7.3833,-1.20026 8.6667,-1.57458 2.0766,-0.60569 2.3333,0.42953 2.3333,9.40928 v 10.08985 h 10 c 11.0439,0 10.0776,-0.96599 10.337,10.33334 l 0.1149,5 -10.226,0.38942 -10.2259,0.38942 v 14.69823 c 0,8.08403 0.6365,15.88753 1.4144,17.34103 2.0989,3.9219 7.1375,5.3709 13.6151,3.9155 3.0607,-0.6877 5.656,-1.1341 5.7674,-0.992 0.1114,0.1421 0.6109,3.6288 1.11,7.7482 l 0.9075,7.4898 -5.9976,1.5102 c -6.0731,1.5292 -13.9476,1.7523 -18.8168,0.5332 z M 439.70725,419.7394 v -15.4219 h 4.04367 4.04367 l -0.377,15 -0.377,15 -3.66667,0.4219 -3.66667,0.4219 z m 12,-0.01 v -15.25165 l 5.95797,-0.89345 c 3.37602,-0.50627 7.76663,-0.26295 10.13156,0.56147 2.78427,0.9706 4.98831,1.0189 6.62105,0.14509 3.80421,-2.03595 8.69463,-1.55225 12.08811,1.19562 2.78856,2.25804 3.14763,3.83807 3.63612,16.00002 l 0.54201,13.4945 h -4.15507 -4.15508 v -10.5034 c 0,-7.6027 -0.53995,-10.9515 -1.95517,-12.126 -4.00628,-3.32496 -5.21686,-0.8771 -5.29872,10.7141 l -0.0794,11.2487 h -4 -4 l -0.66667,-11.3334 c -0.61776,-10.5019 -0.88675,-11.3646 -3.66667,-11.7594 -2.92191,-0.415 -3,-0.1113 -3,11.6667 v 12.0927 h -4 -4 z m 247.99997,-17.18932 v -32.56819 l 8.6074,-2.1621 c 9.1162,-2.28991 16.7591,-2.67793 25.2193,-1.28033 l 5.16,0.85241 -0.8754,7.44829 c -0.4814,4.09656 -1.304,7.8769 -1.8278,8.40075 -0.5239,0.52385 -3.3152,0.41957 -6.2029,-0.23172 -2.8878,-0.6513 -6.9246,-0.84937 -8.9706,-0.44015 l -3.7202,0.74403 -0.3615,25.50564 -0.3616,25.50569 -8.3333,0.3969 -8.3334,0.397 z m -259.68221,-3.77449 c -3.86243,-3.86243 0.32401,-11.04806 4.79401,-8.22846 3.27891,2.06829 2.94225,9.00741 -0.46067,9.49513 -1.47523,0.21143 -3.42523,-0.35857 -4.33334,-1.26667 z m -74.03695,-50.93804 c -4.97889,-1.69663 -9.68891,-3.72115 -10.4667,-4.49894 -1.34516,-1.34516 0.4974,-9.97932 4.21792,-19.76501 l 1.26328,-3.32269 5.47555,2.79341 c 10.88221,5.55169 28.72595,6.30089 34.6512,1.4549 1.46247,-1.1961 3.00035,-4.30791 3.4175,-6.91515 1.17494,-7.3436 -3.85465,-12.22589 -20.73592,-20.12864 -22.10044,-10.34603 -27.25666,-16.96766 -27.35622,-35.13093 -0.0883,-16.11645 5.53682,-26.15414 18.56844,-33.13404 4.50081,-2.41069 7.57476,-2.86596 19.35081,-2.86596 12.85172,0 14.66988,0.32808 22.16725,4 l 8.16726,4 -3.28907,10 c -1.80898,5.5 -3.51599,10.23174 -3.79334,10.51498 -0.27736,0.28324 -3.48377,-0.76676 -7.12537,-2.33333 -8.75509,-3.76634 -22.47508,-3.94652 -26.91235,-0.35344 -3.94115,3.19135 -4.18636,10.80632 -0.48105,14.93914 1.43,1.595 8.69098,5.75807 16.1355,9.25129 24.2411,11.37471 30.80276,20.83091 29.51488,42.53473 -0.9353,15.76207 -7.84818,25.59747 -20.96997,29.83533 -10.70567,3.45755 -30.28726,3.04734 -41.7996,-0.87565 z m 79.99514,1.10959 c -2.78156,-1.02086 -6.7606,-3.06891 -8.84231,-4.55122 l -3.78493,-2.69511 3.21815,-9.02149 c 1.76999,-4.96182 3.47527,-9.75866 3.78953,-10.65964 0.40376,-1.15761 2.64029,-0.57738 7.62416,1.97797 13.81751,7.08457 24.96185,3.68953 27.7807,-8.46318 0.66466,-2.86548 1.22278,-23.65997 1.24028,-46.20997 l 0.0318,-41 h 12.01318 12.01316 l -0.4661,46.33333 c -0.3807,37.84746 -0.8548,47.51703 -2.5884,52.79636 -3.2354,9.85278 -8.40984,16.35173 -16.05104,20.1595 -5.81677,2.89861 -8.48923,3.36415 -18.84926,3.28353 -6.76059,-0.0526 -14.29658,-0.91057 -17.12893,-1.95008 z M 278.37392,289.03608 V 228.3175 h 34.71857 34.71858 l -0.38524,11.39123 -0.38525,11.39123 -22,0.27544 -22,0.27543 -0.38336,12.33334 -0.38337,12.33333 h 20.05003 20.05004 v 11.33333 11.33334 l -17.66667,0.15354 c -9.71667,0.0844 -18.7033,0.049 -19.97029,-0.0788 -2.09775,-0.21156 -2.33607,2.00898 -2.66667,24.84646 l -0.36304,25.07877 -11.66667,0.38525 -11.66666,0.38524 z m 387.0266,27.55083 c -4.937,-0.74371 -8.3599,-6.43912 -8.3599,-13.91006 0,-8.9836 3.7662,-14.35935 10.06,-14.35935 5.3492,0 8.3397,3.59765 8.9058,10.71383 l 0.3675,4.6195 -7,0.40302 c -5.8314,0.33573 -7,0.82342 -7,2.92131 0,3.21517 1.4113,4.04302 7.2677,4.26318 3.5192,0.1323 4.7323,0.76627 4.7323,2.4731 0,2.42074 -3.8348,3.64957 -8.9734,2.87547 z m 5.5657,-17.48242 c 1.0419,-1.68578 -0.4409,-5.11026 -2.5658,-5.92565 -2.693,-1.03339 -6.5947,2.40137 -5.6183,4.94585 0.8908,2.32154 6.9095,3.04209 8.1841,0.9798 z m 17.0744,17.47894 c -1.8289,-0.27519 -3,-1.38542 -3,-2.84408 0,-1.90303 1.0232,-2.36156 5,-2.2406 6.5841,0.20027 6.7344,-3.16613 0.3333,-7.46539 -8.53,-5.72909 -6.3513,-15.71586 3.4286,-15.71586 3.7599,0 4.5714,0.49871 4.5714,2.80932 0,2.0069 -0.5988,2.57952 -2.0966,2.00478 -2.7771,-1.06566 -7.3108,1.44154 -6.4873,3.58755 0.3576,0.93187 2.7353,2.8172 5.2837,4.18963 4.5124,2.43009 5.2424,3.90487 4.657,9.40872 -0.5436,5.11029 -4.6702,7.3222 -11.6901,6.26593 z m 36,-0.5219 c -4.5895,-1.2218 -5.0227,-1.9235 -3.0812,-4.99163 0.9191,-1.45253 1.6503,-1.54986 3.0316,-0.40349 1.3613,1.12971 2.648,1.09886 5.1016,-0.12235 3.1566,-1.57102 3.2956,-2.20199 3.6583,-16.5965 0.3047,-12.09216 0.7524,-14.96339 2.3333,-14.96339 1.1183,0 1.9877,1.2852 2.0295,3 0.307,12.59567 -0.025,25.74388 -0.7304,28.95703 -1.0316,4.69717 -6.0743,6.78909 -12.3427,5.12033 z m -205.3785,-0.87105 c -0.9415,-0.5974 -1.3513,-2.02572 -0.9107,-3.17405 0.6153,-1.60345 2.065,-1.91837 6.2481,-1.35729 4.2243,0.56659 5.8298,0.20704 7.1524,-1.60179 2.4067,-3.29138 1.021,-5.78142 -4.8979,-8.801 -5.7797,-2.94861 -7.8801,-6.02837 -7.8801,-11.55452 0,-6.11323 3.3764,-9.72088 9.0756,-9.69725 5.7733,0.0239 8.8256,1.60925 7.9804,4.14483 -0.391,1.17313 -2.2376,1.66609 -5.2643,1.40532 -9.2022,-0.79281 -9.8509,5.97781 -1.0052,10.49059 5.7798,2.94861 7.8802,6.02836 7.8802,11.55452 0,6.64738 -3.2986,9.72044 -10.409,9.69724 -3.4417,-0.0112 -7.028,-0.5092 -7.9695,-1.1066 z m 29.5851,-1.67963 c -1.948,-2.15249 -2.54,-4.82147 -2.54,-11.45114 0,-7.47618 0.4254,-8.98896 3.1477,-11.19335 4.2624,-3.4514 9.7479,-3.22967 13.2866,0.53708 4.2076,4.47883 4.1958,18.26873 -0.019,22.19545 -3.8516,3.58827 -10.587,3.54553 -13.8753,-0.088 z m 12.2781,-7.32172 c 1.4437,-5.75248 -1.0552,-11.81137 -5.0653,-12.28112 -2.9496,-0.34552 -3.7333,0.31048 -5.0167,4.19908 -1.7655,5.34969 -0.7036,11.0563 2.3783,12.78105 2.9828,1.66925 6.6698,-0.57971 7.7037,-4.69901 z m 13.3515,9.06936 c -0.8099,-1.3104 3.5186,-11.1552 7.1419,-16.24367 3.5808,-5.02873 3.4572,-5.36399 -1.9781,-5.36399 -3.7778,0 -4.6667,-0.50793 -4.6667,-2.66666 0,-2.37037 0.8889,-2.66667 8,-2.66667 5.9384,0 8,0.4773 8,1.85215 0,1.01868 -2.3851,5.9336 -5.3002,10.92206 -2.915,4.98846 -4.9829,9.38717 -4.5951,9.77493 0.3877,0.38775 2.7728,0.52685 5.3001,0.30911 3.8899,-0.33513 4.5952,0.0291 4.5952,2.37293 0,2.49217 -0.7915,2.76882 -7.9213,2.76882 -4.3567,0 -8.2158,-0.47655 -8.5758,-1.05901 z m 25.8304,-12.94099 c 0,-12.80185 0.2291,-14.15141 2.3334,-13.74617 2.0362,0.39213 2.3333,2.14261 2.3333,13.74617 0,11.60356 -0.2971,13.35404 -2.3333,13.74617 -2.1043,0.40524 -2.3334,-0.94432 -2.3334,-13.74617 z m 15.4548,11.10212 c -1.1668,-1.66584 -2.1214,-4.12257 -2.1214,-5.4594 0,-3.55076 6.0075,-8.97605 9.9394,-8.97605 2.0917,0 3.3939,-0.74939 3.3939,-1.95309 0,-2.65258 -4.2599,-4.74463 -7.7844,-3.82295 -2.2837,0.5972 -2.8823,0.16764 -2.8823,-2.06845 0,-2.3951 0.7927,-2.82218 5.2381,-2.82218 2.881,0 6.1378,0.89964 7.2373,1.9992 2.2069,2.20687 3.994,13.39303 3.302,20.66747 -0.4389,4.61248 -0.5239,4.67129 -7.3226,5.06546 -5.8914,0.34157 -7.183,-0.0358 -9,-2.63001 z m 11.2119,-5.10212 c 0,-3.391 -0.5139,-4 -3.3752,-4 -3.5731,0 -5.4191,2.67363 -4.1426,6 0.4221,1.1 2.2863,2 4.1426,2 2.8613,0 3.3752,-0.609 3.3752,-4 z m 17.3333,6.6971 c -1.6198,-1.02219 -2,-4.75208 -2,-19.62388 0,-16.42579 0.2461,-18.40962 2.3334,-18.81528 2.1263,-0.41325 2.3333,1.09272 2.3333,16.97763 0,10.73184 0.5124,17.4311 1.3333,17.4311 0.7334,0 1.3334,1.2 1.3334,2.66666 0,2.86176 -2.1061,3.40029 -5.3334,1.36377 z m 105.7115,-0.30154 c -4.9742,-6.20895 -2.2058,-13.68172 5.6118,-15.1483 2.7271,-0.51162 4.6767,-1.66301 4.6767,-2.76198 0,-2.26669 -5.8362,-4.72024 -8.6551,-3.63856 -1.4109,0.54142 -2.0115,-0.0888 -2.0115,-2.11046 0,-2.60501 0.6063,-2.84326 6.3015,-2.47598 8.2273,0.53058 9.838,3.46445 9.3733,17.07305 l -0.3415,10 -6.7851,0.39556 c -4.3787,0.25527 -7.2763,-0.2176 -8.1701,-1.33333 z m 10.2885,-6.28445 c 0,-2.13889 -0.75,-4.15781 -1.6666,-4.4865 -2.5975,-0.93134 -6.3334,1.54619 -6.3334,4.20008 0,3.19078 1.1528,4.17531 4.8889,4.17531 2.5482,0 3.1111,-0.7037 3.1111,-3.88889 z m 15.877,6.88889 c -0.068,-0.55 -0.1621,-9.4 -0.2098,-19.66667 -0.076,-16.36049 0.1863,-18.71992 2.1231,-19.09776 1.7947,-0.35013 2.2097,0.69909 2.2097,5.58618 0,5.98379 0.028,6.01958 4.9694,6.4311 6.5836,0.54825 8.3191,4.17007 8.3443,17.41382 0.016,8.30503 -0.3729,10.33333 -1.9803,10.33333 -1.5747,0 -2,-1.86159 -2,-8.75432 0,-10.36519 -1.5418,-13.91235 -6.0469,-13.91235 -3.2353,0 -3.2865,0.17648 -3.2865,11.33334 0,9.18518 -0.379,11.33333 -2,11.33333 -1.1,0 -2.0553,-0.45 -2.123,-1 z m 28.123,-12.19068 c 0,-14.4956 0.1833,-14.80932 8.6509,-14.80932 3.7764,0 4.3295,0.3949 3.7355,2.66667 -0.4987,1.90702 -1.8187,2.66666 -4.6338,2.66666 h -3.9363 l 0.1969,8.33334 c 0.3095,13.09922 0.1362,14.33333 -2.0132,14.33333 -1.643,0 -2,-2.35452 -2,-13.19068 z m -203.8817,-21.25496 c -1.0208,-1.90739 -0.9435,-2.98286 0.2878,-4.00475 2.2557,-1.8721 5.3056,0.17164 4.7251,3.16634 -0.6658,3.43499 -3.3803,3.88898 -5.0129,0.83841 z m 114.2151,-6.47346 c -1.2834,-0.33537 -2.3334,-1.75077 -2.3334,-3.14533 0,-2.08227 0.686,-2.39837 3.8371,-1.76815 4.427,0.8854 9.4963,-1.36429 9.4963,-4.21433 0,-1.32598 -1.4321,-1.95309 -4.46,-1.95309 -5.6452,0 -8.8766,-3.4659 -9.8252,-10.53801 -0.9094,-6.77997 1.6755,-13.29618 5.9135,-14.90749 5.2649,-2.00169 10.8166,-1.46009 12.2369,1.19377 1.7836,3.33267 0.982,26.89189 -1.0428,30.64889 -2.3957,4.44508 -7.7687,6.26574 -13.8224,4.68374 z m 10.7332,-24.74757 c 0.3792,-7.27174 0.2384,-7.66666 -2.7334,-7.66666 -4.5427,0 -6.3332,2.46267 -6.3332,8.71111 0,6.51576 0.7733,7.54273 5.2835,7.01677 3.1293,-0.36494 3.4132,-0.96994 3.7831,-8.06122 z m -151.9628,14.81822 c -6.0169,-2.20314 -8.5047,-14.61892 -4.4864,-22.38952 4.8491,-9.37711 15.8079,-6.30982 17.5233,4.90464 l 0.8668,5.66666 h -7.5037 c -5.6144,0 -7.5038,0.47961 -7.5038,1.90477 0,3.54497 4.188,6.39098 8.2183,5.58492 3.0681,-0.61363 3.7817,-0.28878 3.7817,1.72147 0,1.4425 -1.2535,2.81376 -3,3.2818 -3.5725,0.95739 -3.3981,0.9723 -7.8962,-0.67474 z m 8.2296,-17.65496 c 0,-1.0102 -0.9503,-2.62541 -2.1118,-3.58934 -2.476,-2.05489 -6.2927,-0.28713 -6.986,3.23566 -0.3353,1.70344 0.6281,2.19042 4.3333,2.19042 3.158,0 4.7645,-0.61931 4.7645,-1.83674 z m 85.5506,17.03887 c -2.7201,-1.90523 -2.884,-3.06817 -2.884,-20.46841 0,-15.1686 0.3556,-18.58485 2,-19.21588 1.7138,-0.65765 2,1.68345 2,16.36075 0,13.59849 0.4122,17.47029 2,18.78808 4.3667,3.62397 1.5129,7.77767 -3.116,4.53546 z m 16.0617,0.0432 c -2.7973,-1.95935 -2.9457,-2.99223 -2.9457,-20.51165 0,-14.59693 0.3904,-18.59819 1.8697,-19.16586 1.0283,-0.3946 2.2283,-0.35879 2.6666,0.0796 0.4384,0.43836 0.7971,8.20516 0.7971,17.25956 0,10.67832 0.5738,17.38143 1.6332,19.07783 2.3878,3.82345 -0.2098,5.9299 -4.0209,3.26055 z m 62.9146,0.18156 c -4.6153,-2.00907 -5.815,-4.98417 -5.8421,-14.48753 -0.044,-15.33988 16.6125,-18.07966 18.3108,-3.01196 l 0.6845,6.07256 h -6.7614 c -7.5416,0 -9.0231,1.10248 -6.3656,4.73691 1.1768,1.60933 3.4728,2.46309 6.624,2.46309 3.6316,0 4.8229,0.5544 4.8229,2.2445 0,1.23447 -1.35,2.60627 -3,3.04846 -3.8313,1.02673 -3.5981,1.05606 -8.4731,-1.06603 z m 8.1758,-16.81866 c 1.1962,-1.93549 -1.8546,-5.27493 -4.8191,-5.27493 -2.5543,0 -5.7534,4.35246 -4.2812,5.82469 1.3702,1.37011 8.1676,0.95947 9.1003,-0.54976 z m 15.0193,17.37083 c -3.6772,-2.23246 -1.5382,-4.83333 3.492,-4.24608 5.8938,0.68807 7.5783,-2.01906 3.3314,-5.35382 -1.7666,-1.38725 -4.2621,-3.38421 -5.5454,-4.43768 -2.9013,-2.3816 -3.0353,-9.04912 -0.2381,-11.84628 1.1524,-1.15238 4.1524,-2.09523 6.6666,-2.09523 3.6826,0 4.5715,0.51851 4.5715,2.66666 0,2.06218 -0.8889,2.66667 -3.9213,2.66667 -6.8217,0 -6.5119,2.63012 0.9213,7.8217 3.4063,2.37907 4.3333,3.97055 4.3333,7.43916 0,2.42694 -0.8072,5.08252 -1.7937,5.90129 -2.6871,2.23003 -9.2342,3.05198 -11.8176,1.48361 z m -249.0554,-17.97905 v -18 h 9.4311 c 8.2643,0 9.3755,0.28867 8.9818,2.33333 -0.4698,2.43918 -0.8367,2.56275 -8.4129,2.83333 -4.4127,0.1576 -4.6666,0.42064 -4.6666,4.83334 0,4.55555 0.1269,4.66666 5.3333,4.66666 4.4444,0 5.3333,0.44445 5.3333,2.66667 0,2.22222 -0.8889,2.66666 -5.3333,2.66666 h -5.3333 v 8 c 0,7.11112 -0.2963,8 -2.6667,8 -2.535,0 -2.6667,-0.88888 -2.6667,-17.99999 z m 26.6667,4.69206 c 0,-12.93263 0.09,-13.33056 3.1977,-14.1105 4.9497,-1.24228 9.396,-0.1546 9.8864,2.41844 0.3455,1.81254 -0.4698,2.33333 -3.653,2.33333 h -4.0978 v 11.33333 c 0,10.44445 -0.2091,11.33333 -2.6666,11.33333 -2.4886,0 -2.6667,-0.88888 -2.6667,-13.30793 z m 49.62,-0.25045 c 0.2629,-9.37952 0.8937,-13.72873 2.0467,-14.11111 1.2631,-0.41891 1.6666,2.86359 1.6666,13.55838 0,11.79726 -0.3356,14.11111 -2.0466,14.11111 -1.7307,0 -1.988,-2.09301 -1.6667,-13.55838 z m 19.3196,12.55838 c -1.6178,-2.93534 -6.711,-25.67304 -5.9265,-26.45755 1.9088,-1.90876 4.7861,2.48394 5.6257,8.5884 0.4788,3.48151 1.3801,7.15441 2.0028,8.16199 1.0972,1.77525 1.9001,-0.37811 4.5834,-12.29283 1.4832,-6.58555 4.3671,-4.2629 6.2082,5 0.9475,4.76666 2.1447,8.66666 2.6604,8.66666 0.5158,0 1.6737,-3.9 2.5731,-8.66666 1.3327,-7.06299 2.1055,-8.66667 4.1763,-8.66667 2.081,0 2.3935,0.66401 1.7256,3.66667 -1.6455,7.39871 -5.8098,22.01898 -6.4555,22.66469 -1.3385,1.33848 -4.7827,-0.98213 -4.8822,-3.28952 -0.056,-1.30634 -0.8689,-4.77518 -1.8057,-7.70851 l -1.7031,-5.33333 -2.413,8.33333 c -2.1358,7.37597 -4.7116,10.34157 -6.3695,7.33333 z m 32.6804,-12.66666 c 0.3084,-11.09038 0.757,-13.66667 2.38,-13.66667 1.623,0 2.0716,2.57629 2.38,13.66667 0.3629,13.05413 0.2563,13.66666 -2.38,13.66666 -2.6363,0 -2.7429,-0.61253 -2.38,-13.66666 z m 48,0 c 0.3084,-11.09038 0.757,-13.66667 2.38,-13.66667 1.623,0 2.0716,2.57629 2.38,13.66667 0.3629,13.05413 0.2563,13.66666 -2.38,13.66666 -2.6363,0 -2.7429,-0.61253 -2.38,-13.66666 z m -99.8045,-20.33333 c -0.4221,-1.1 -0.3812,-3.00653 0.091,-4.23673 0.763,-1.98819 1.0805,-2.0145 2.8583,-0.23672 1.122,1.122 1.6232,2.98193 1.1417,4.23672 -1.0653,2.77602 -3.0719,2.89214 -4.0908,0.23673 z m 52.0425,0.11087 c -1.1035,-2.87586 0.432,-6.45867 2.476,-5.77731 0.9163,0.30543 1.666,1.95532 1.666,3.66644 0,3.65444 -2.969,5.16754 -4.142,2.11087 z m 48.3642,1.00024 c -1.6288,-1.62885 -0.916,-5.48205 1.1616,-6.27932 2.329,-0.89372 3.967,2.1289 2.8007,5.16821 -0.8125,2.11726 -2.4866,2.58674 -3.9623,1.11111 z"
       id="path1" />
  </g>
</svg>
