<?xml version="1.0" encoding="UTF-8" standalone="no"?>
<!-- Created with Inkscape (http://www.inkscape.org/) -->

<svg
   xmlns:dc="http://purl.org/dc/elements/1.1/"
   xmlns:cc="http://creativecommons.org/ns#"
   xmlns:rdf="http://www.w3.org/1999/02/22-rdf-syntax-ns#"
   xmlns:svg="http://www.w3.org/2000/svg"
   xmlns="http://www.w3.org/2000/svg"
   xmlns:sodipodi="http://sodipodi.sourceforge.net/DTD/sodipodi-0.dtd"
   xmlns:inkscape="http://www.inkscape.org/namespaces/inkscape"
   width="210mm"
   height="297mm"
   viewBox="0 0 210 297"
   version="1.1"
   id="svg8"
   inkscape:version="0.92.1 r15371"
   sodipodi:docname="team.svg">
  <defs
     id="defs2" />
  <sodipodi:namedview
     id="base"
     pagecolor="#ffffff"
     bordercolor="#666666"
     borderopacity="1.0"
     inkscape:pageopacity="0.0"
     inkscape:pageshadow="2"
     inkscape:zoom="0.38347826"
     inkscape:cx="-71.977681"
     inkscape:cy="712.79003"
     inkscape:document-units="mm"
     inkscape:current-layer="layer1"
     showgrid="false"
     inkscape:window-width="1600"
     inkscape:window-height="837"
     inkscape:window-x="-8"
     inkscape:window-y="-8"
     inkscape:window-maximized="1" />
  <metadata
     id="metadata5">
    <rdf:RDF>
      <cc:Work
         rdf:about="">
        <dc:format>image/svg+xml</dc:format>
        <dc:type
           rdf:resource="http://purl.org/dc/dcmitype/StillImage" />
        <dc:title />
      </cc:Work>
    </rdf:RDF>
  </metadata>
  <g
     inkscape:label="Ebene 1"
     inkscape:groupmode="layer"
     id="layer1">
    <path
       style="fill:#d1d1d1;stroke-width:1"
       d="m 180.32001,118.31991 -0.65472,-0.0327 c -0.0154,0.31224 -0.0454,0.70251 -0.0911,1.15799 -0.33931,0.4893 -0.7166,1.00692 -1.13666,1.55632 -2.8727,3.75663 -5.29934,5.1704 -8.65786,7.12717 -4.97663,2.89954 -11.79129,6.86981 -24.39191,21.14649 -6.14933,5.56825 -13.95653,8.96193 -19.42672,10.82941 -5.95311,2.03236 -10.50412,2.74678 -10.54949,2.75385 l -0.14681,0.0227 -14.58659,11.55921 c -5.393522,-19.70395 -22.592326,-40.7316 -25.31417,-43.97521 1.081616,-0.47422 2.150089,-1.00602 3.203622,-1.59709 3.468719,-1.94576 4.849017,-7.75104 5.220938,-9.68905 1.095882,0.29679 3.546114,0.90637 6.389385,1.26853 5.158367,0.65727 8.929369,0.17851 11.208405,-1.4231 3.56061,-2.5019 6.6236,-7.9876 5.72878,-12.2397 3.54768,-0.44887 9.22816,-3.90478 9.22816,-14.688467 0,-6.017915 -2.41754,-9.396434 -4.44552,-11.170894 -1.26315,-1.105205 -2.52303,-1.738516 -3.38874,-2.08213 0.88368,-0.687566 2.24478,-1.904089 3.46073,-3.649793 1.82029,-2.613333 3.63104,-6.943053 1.91971,-12.728782 -2.11965,-7.166588 -5.62139,-9.620639 -7.62523,-10.456255 5.45514,-2.662982 10.0895,-5.752815 13.00264,-7.695096 l 0.14326,-0.09559 c 3.66345,-2.442373 5.7521,-4.695355 7.96352,-7.080661 1.65292,-1.782997 3.36223,-3.626652 5.85021,-5.66239 5.87761,-4.808916 8.02758,-10.59105 8.11633,-10.834916 l -1.05556,-0.384279 c -0.0209,0.05696 -2.14436,5.74529 -7.77204,10.349767 -2.54796,2.084713 -4.28389,3.957237 -5.96276,5.768205 -2.16491,2.335206 -4.20976,4.540898 -7.76283,6.909691 l -0.14335,0.09548 c -3.29178,2.19491 -8.80118,5.868404 -15.17596,8.693927 -7.691502,3.409185 -14.329472,4.522926 -19.729575,3.310785 -7.478302,-1.678757 -13.295482,-6.472733 -14.475386,-11.928888 -0.940867,-4.350838 1.11745,-8.580248 5.952426,-12.231052 12.975792,-9.798119 23.726691,-15.497691 28.761605,-15.245849 3.08961,0.154565 8.21439,2.580196 12.33226,4.529103 2.88596,1.366033 5.37842,2.545712 6.90868,2.8736 1.05938,0.227015 2.47978,0.409216 3.98353,0.602082 1.9425,0.249037 3.95117,0.506721 5.49963,0.892227 2.14514,0.53412 2.25376,1.038481 2.25376,1.134185 h 1.12329 c 0,-0.916042 -0.82297,-1.523967 -2.27534,-1.985302 l 0.17824,-0.172199 c -0.1329,-0.144118 -0.28898,-0.453022 0.15944,-0.901329 0.54771,-0.54772 2.5429,-2.636024 4.4608,-4.967637 0.84469,-1.026911 1.57272,-1.974742 2.18413,-2.842484 2.92302,-1.046906 20.78804,-7.0805442 28.08426,-1.011971 2.8143,2.340823 3.73303,6.29514 2.7305,11.753205 -1.06096,5.776517 -1.28314,10.041536 -0.66027,12.676661 0.36357,1.53857 0.9484,2.157053 1.31729,2.402042 l 5.80606,16.312413 c 0.19495,0.854035 2.88011,12.500754 4.86485,15.052644 1.73088,2.225238 1.35997,11.430934 -0.61993,15.390867 -1.61575,3.231596 -0.4308,5.866377 0.52545,6.949116 0.14163,1.323909 0.94098,9.505964 -0.53299,12.699694 -0.65391,1.41658 -0.40672,2.47079 -0.1678,3.49017 0.14681,0.62602 0.30579,1.30504 0.25973,2.17604 l -0.22957,0.26709 c 0.006,0.005 0.0718,0.0618 0.19096,0.16379 -0.14771,1.18294 -0.67925,2.70881 -2.0336,4.85835 z m -3.95813,15.70055 c -1.72684,5.34069 -3.99308,10.49692 -6.73604,15.32538 -3.42636,6.03173 -7.61061,11.56708 -12.43672,16.45204 l -0.31206,0.31578 0.23529,0.37665 c 0.10039,0.1607 0.19414,0.3662 0.28126,0.60803 -1.59608,0.29225 -6.04846,1.05297 -8.98699,1.02658 0.0463,-0.8863 0.48176,-3.63418 1.89769,-6.27728 1.71919,-3.20902 7.64387,-18.50946 8.189,-20.47241 0.43089,-1.55115 0.0754,-2.96571 -0.17569,-3.67226 5.30474,-4.68591 9.009,-6.84488 12.0274,-8.60338 3.32178,-1.93543 5.94939,-3.46704 8.93745,-7.35464 -0.45514,3.04378 -1.34952,7.4163 -2.92066,12.27554 z m -18.15102,47.50865 c -0.11882,0.31314 -0.7125,0.9631 -3.34729,1.80692 -2.99244,0.393 -4.89552,0.29488 -5.96669,0.14253 -1.43398,-0.20376 -1.91273,-0.5716 -1.96474,-0.67698 -0.14817,-0.49402 -0.0572,-1.17541 0.1181,-1.32313 0.0545,-0.0463 0.21812,0.01 0.34167,0.0718 l 0.25128,-0.50211 0.56152,-0.01 c -5.6e-4,-0.03 -0.0545,-3.0613 -0.14545,-6.09553 -0.0973,-3.24922 -0.18087,-4.8726 -0.26472,-5.71204 0.2441,0.0118 0.49965,0.0182 0.76556,0.0182 3.13915,0 7.61725,-0.7801 9.13246,-1.06185 0.65854,3.08501 0.68489,8.75492 -0.12019,11.37129 l -0.0463,0.14962 0.0382,0.1519 c 0.069,0.2749 0.21703,0.52354 0.36047,0.7641 0.23938,0.40181 0.37819,0.66318 0.28626,0.90574 z m -15.25405,-17.25969 -0.35284,-0.14354 c -2.47237,-1.00501 -6.59338,-2.68073 -8.5396,-4.60571 6.30289,3.46962 9.13482,4.04373 10.31517,4.04373 0.39537,0 0.60577,-0.0645 0.6997,-0.10529 l -0.006,-0.0136 c 0.66127,0.55489 1.08802,0.90792 1.09779,0.91593 l 0.0363,-0.0436 c -0.005,0.50001 0.008,1.0396 0.0272,1.52733 0.008,0.19895 0.0164,0.38446 0.0254,0.55843 -0.71777,-0.72259 -1.77356,-1.51083 -3.3027,-2.1337 z m -5.71304,-7.89931 c 0.48412,0.59813 1.63426,1.74054 4.39902,4.14752 0.7542,0.65655 1.51015,1.30369 2.18289,1.87467 -0.35811,-0.05 -0.84659,-0.15154 -1.496,-0.34658 -2.13076,-0.64001 -4.98021,-1.96071 -8.4778,-3.92893 1.20978,-0.57633 2.33857,-1.16126 3.39189,-1.74672 z m 18.04351,-15.87366 c 0.19104,0.29988 0.3165,0.89493 -0.19187,2.0208 -0.0998,0.22094 -0.24946,0.55098 -0.43951,0.96996 -3.3829,7.45955 -7.90785,17.5359 -8.30292,19.25363 -0.0236,0.0718 -0.0436,0.15998 -0.0609,0.26073 -3.49511,-2.90931 -7.07246,-6.05801 -8.06275,-7.19163 3.51522,-2.0463 6.11081,-4.06788 7.93593,-5.72328 l 0.0436,-0.0445 c 3.43457,-3.89254 6.43275,-7.01001 9.07809,-9.54573 z m 2.10751,-1.96699 c 0.1628,0.62984 0.28899,1.56362 0.0164,2.54515 -0.4893,1.76144 -6.41803,17.10861 -8.09689,20.24247 -1.09735,2.04831 -1.65978,4.19223 -1.89433,5.62993 -0.10138,-1.4121 -0.13272,-3.40919 -0.0136,-3.8202 l 0.0227,-0.0463 0.0145,-0.0709 c 0.22448,-1.09195 2.99503,-7.50425 8.23506,-19.05874 0.19033,-0.41962 0.34013,-0.7502 0.44015,-0.97165 0.49021,-1.08532 0.58669,-2.01023 0.28698,-2.74925 -0.0836,-0.20549 -0.18905,-0.37328 -0.29988,-0.51073 0.43942,-0.41281 0.86885,-0.80908 1.28864,-1.19001 z m -67.980253,55.12376 c -0.322494,-0.008 -1.281337,-0.0899 -2.417431,-0.71314 0.308795,-0.0327 0.520193,-0.19977 0.633088,-0.29816 l 0.08176,-0.0145 0.130192,-0.1529 c 0.90211,-1.05881 1.166761,-2.87303 0.796411,-5.39773 0.522101,2.22815 0.8373,4.40789 0.901329,6.51182 -0.04188,0.0218 -0.08394,0.0436 -0.125359,0.0645 z m -2.547397,-1.8368 c -0.09066,-0.0336 -0.418427,-0.2124 -1.084423,-1.14475 l 1.89162,-1.90634 c 0.04261,1.19237 -0.118055,2.2422 -0.623086,2.90123 -0.05642,0.0382 -0.101993,0.0781 -0.139176,0.11102 -0.01317,0.0118 -0.03043,0.0273 -0.04497,0.0391 z m -4.740282,0.50199 c -1.257635,-1.24393 -5.671714,-5.80291 -12.486264,-14.9065 -12.865711,-17.18689 -24.740905,-37.73534 -32.803542,-52.70868 2.255005,1.61956 6.200111,4.12179 11.292432,6.02824 1.185857,0.44397 2.371489,0.83134 3.554875,1.16216 2.544251,2.52717 26.948731,27.13733 35.175368,49.35139 l -0.861674,0.34022 c 0.503459,1.27594 1.353002,3.91208 1.608214,6.26099 l -0.303626,-0.30115 -2.929876,2.9528 -0.102329,-0.13537 z m 1.502063,4.21077 c -0.234992,0.56906 -1.375019,1.67415 -2.720046,1.75828 -1.229665,0.0772 -2.927068,1.32167 -5.276541,3.04434 -1.01478,0.74418 -2.165028,1.58766 -3.394357,2.41744 -1.157213,0.77147 -3.296406,2.35486 -4.19852,3.02704 -1.180353,-1.35054 -5.423242,-6.35805 -12.149277,-15.96521 -7.343169,-10.48861 -19.214993,-28.73936 -34.095998,-56.14887 0.01962,-0.26463 0.02553,-0.76529 -0.09683,-1.48915 0.441794,-0.59649 2.989187,-2.05089 5.24464,-3.11117 l 0.221964,-0.10429 0.0744,-0.23384 c 0.305425,-0.95974 2.543578,-2.68882 3.10073,-2.84798 0.158608,-0.0454 0.311602,-0.0745 0.459426,-0.10366 0.503342,-0.0975 1.129694,-0.21885 1.440171,-1.02601 0.427976,-1.11273 0.53412,-1.2527 2.624678,-2.34711 14.527169,27.20326 26.451339,44.77005 33.913128,54.73329 7.814838,10.43435 12.510976,14.94739 12.926705,15.34032 1.034101,1.2546 1.921499,2.66377 1.925768,3.05659 z M 30.743768,94.115489 c 2.811032,3.337857 7.057742,6.642801 12.647567,9.839341 4.916527,2.81148 10.883892,5.55085 17.736296,8.14228 2.229842,0.84314 4.410709,1.61585 6.481157,2.31476 -1.904088,3.19587 -2.834621,9.76768 -2.875285,10.06041 l -0.05033,0.36257 0.311484,0.19241 c 0.228478,0.14108 4.424975,2.69836 8.245283,2.69803 1.161033,-1.1e-4 2.288029,-0.23648 3.257541,-0.84869 1.772664,-1.11958 2.690503,-3.20789 2.654108,-6.03892 -0.01517,-1.19192 -0.193992,-2.27062 -0.346423,-2.98345 1.845902,0.513 3.202499,0.86158 3.892648,1.03465 -0.32789,1.70718 -1.613606,7.27949 -4.679849,8.99958 -5.000089,2.80493 -10.34032,4.25611 -15.872297,4.31328 -4.43677,0.0425 -9.005976,-0.79842 -13.587425,-2.5092 -7.568052,-2.82586 -12.686659,-7.12525 -13.069026,-7.4519 -1.333682,-1.45837 -5.266432,-8.05511 -5.945349,-10.18902 -0.44954,-1.413 -0.001,-8.07714 1.199899,-17.936131 z m 45.153888,31.811441 c -1.827032,1.15385 -4.498889,0.60994 -6.418366,-0.05 -1.613269,-0.55425 -2.982559,-1.2837 -3.577341,-1.62058 0.232076,-1.47914 1.183161,-6.99651 2.801934,-9.47842 3.392784,1.1243 6.444762,2.03978 8.863766,2.72824 0.287337,1.10644 1.475554,6.43387 -1.669993,8.42052 z M 29.79852,78.139161 c 1.041289,-4.154824 2.67444,-7.92773 3.716291,-9.875963 0.318116,0.812699 0.843251,1.958455 1.64663,3.18711 1.9953,3.051416 4.77151,5.147587 8.028714,6.061946 9.309375,2.613108 44.166066,19.075702 53.318178,25.018696 -0.966584,-0.29025 -1.940144,-0.54208 -2.806534,-0.76601 -0.889292,-0.22984 -1.657305,-0.42834 -2.077413,-0.58587 -0.169065,-0.0636 -0.437606,-0.10502 -0.757565,0.0563 -0.612303,0.30934 -1.571371,1.4103 -3.569591,7.22556 -1.082627,3.15073 -1.958455,6.23146 -1.967217,6.26212 l -0.09514,0.33577 0.258694,0.23411 c 0.178603,0.16152 4.355555,3.87512 10.623741,4.23907 -5.533442,0.49029 -12.520978,-1.57249 -12.613536,-1.60036 l -0.621514,-0.18623 -0.0046,0.03 C 80.525047,117.18347 71.510647,114.82345 61.513144,111.042 54.718252,108.4718 48.80694,105.75827 43.943432,102.97656 37.899685,99.519857 33.477518,95.955549 30.799483,92.38281 l -1.12e-4,-1.09e-4 C 27.967895,88.607322 28.692304,82.55324 29.79852,78.139161 Z m 70.57259,27.343679 c 0.20104,1.30391 1.22933,9.49742 -3.955222,12.94187 -5.131076,-0.22357 -8.901171,-2.94459 -9.904156,-3.74494 0.260828,-0.89719 0.997931,-3.38492 1.866571,-5.90816 1.85983,-5.40212 2.732176,-6.34468 2.949425,-6.50519 0.478759,0.16897 1.197987,0.35484 2.092911,0.58613 2.249721,0.58142 5.612742,1.45062 6.950471,2.63029 z m 0.36938,12.62263 c -1.02163,0.71787 -2.356104,1.13161 -3.829972,1.33694 2.652314,-1.69863 4.276372,-4.72354 4.696812,-8.75222 0.20886,-2.00137 0.0772,-3.76898 -0.0409,-4.75792 0.974,0.48975 1.89488,0.81544 2.75565,0.96951 0.4,0.0718 0.74794,0.0982 1.04421,0.0982 0.24529,0 0.45505,-0.0182 0.62984,-0.0445 0.66127,3.17183 -1.31874,8.38311 -5.2561,11.14988 z M 35.379135,47.773608 c 1.979574,-3.481525 4.808803,-4.773533 6.681102,-5.62858 0.261055,-0.119181 0.495039,-0.226116 0.703966,-0.328672 1.069372,2.361828 3.114658,4.464065 6.53676,6.737491 3.370543,2.239165 7.761932,4.452383 13.321655,7.254317 8.83793,4.454069 19.836959,9.997503 33.09391,18.815665 l 0.13309,0.08867 0.159889,0.0051 c 1.080159,0.03498 2.062705,0.146816 2.953923,0.310703 1.51644,0.756084 4.67838,2.283199 6.22774,2.669386 0.57996,0.459871 0.99041,0.880997 1.25157,1.181476 l -0.65972,0.400677 1.37233,0.300364 c 0.02,0.0045 2.05056,0.464142 4.04473,2.227483 2.66737,2.358572 4.01992,5.820214 4.01992,10.288663 0,4.731744 -1.16238,8.503409 -3.36145,10.907139 -2.25926,2.46967 -4.7569,2.69837 -5.46862,2.70971 l -0.76065,0.0118 0.0436,0.13473 c -0.93772,0.0799 -3.23362,-0.15944 -7.015729,-3.18509 C 95.289788,99.980411 82.469012,93.49869 72.513407,88.766717 59.433373,82.549758 48.042542,77.707593 43.49378,76.430749 40.471232,75.582329 37.991121,73.710479 36.122304,70.867208 34.774918,68.817317 34.24787,66.972089 34.199681,66.796856 32.554511,58.444074 32.951257,52.043681 35.379135,47.773608 Z M 99.309372,73.94491 C 99.09125,73.835949 98.894387,73.736536 98.728411,73.651504 l -4.50372,-3.524656 c -0.0854,-1.032865 -0.232475,-5.596791 3.338756,-9.366776 4.299833,-3.158354 11.605833,3.176214 12.354713,3.844796 2.23805,3.951172 1.2919,6.923958 0.0982,8.726164 -1.49734,2.260845 -3.83839,3.382675 -4.30916,3.327071 -0.003,-5.61e-4 -0.008,-0.0015 -0.0109,-0.0019 -1.34189,-1.020171 -3.40774,-2.14773 -6.386928,-2.711284 z M 47.048318,27.099348 c 3.325387,-5.115574 7.709361,-8.380527 11.727256,-8.73369 7.796642,-0.685431 20.693805,2.959307 24.477382,4.097199 -2.427542,1.721105 -5.091086,3.447938 -7.934244,5.143207 -1.015792,-1.233597 -2.338689,-2.969416 -3.237884,-4.189646 l -0.904363,0.666338 c 0.343616,0.466167 3.061638,4.140671 4.373865,5.485136 -0.335867,0.250381 -0.67296,0.502896 -1.012196,0.75901 -2.672868,2.018326 -4.565948,4.240306 -5.626671,6.604269 -0.988944,2.203894 -1.240111,4.478556 -0.746645,6.760632 1.270552,5.875816 7.430111,11.014754 15.327287,12.787529 1.488583,0.334178 3.062425,0.50088 4.71939,0.50088 4.621217,0 9.884165,-1.297849 15.711335,-3.880741 0.28254,-0.125131 0.56252,-0.252407 0.84133,-0.380681 0.80144,0.140975 5.46447,1.329188 8.04815,10.064451 1.26785,4.286474 0.68244,8.23405 -1.74009,11.73321 -1.35312,1.954524 -2.93415,3.220022 -3.67113,3.749991 -0.16307,-0.19759 -0.38619,-0.446844 -0.6749,-0.727105 1.24775,-0.493457 2.9656,-1.725598 4.17145,-3.505563 1.41591,-2.090105 2.55672,-5.532988 -0.0491,-10.065462 l -0.0427,-0.07413 -0.0627,-0.05814 c -0.0867,-0.07982 -2.14198,-1.968966 -4.84911,-3.426547 -3.70741,-1.99631 -6.833864,-2.176373 -9.04135,-0.520869 l -0.03725,0.02789 -0.0318,0.0337 c -4.460251,4.672547 -3.683263,10.316629 -3.647996,10.554654 l 0.0327,0.221737 3.719883,2.91123 c -0.223391,-0.01535 -0.450324,-0.02816 -0.681981,-0.03716 C 82.951914,64.795714 71.963782,59.258009 63.12821,54.805064 52.514245,49.455846 45.499975,45.920629 43.571287,40.834485 42.447997,37.545942 43.844584,32.02767 47.048318,27.099348 Z M 96.679524,12.342691 c 0.617389,-0.634995 1.150583,-1.183386 1.648656,-1.665838 l 0.04451,-0.04352 0.03452,-0.05233 c 2.17211,-3.3196506 5.30979,-5.3654981 9.32589,-6.080472 3.0275,-0.5389543 5.44638,-0.078182 5.46728,-0.074248 0.28544,0.05796 6.79567,1.3577203 10.76595,0.4151683 1.76547,3.0579315 5.37145,4.1279773 8.87264,4.1279773 1.22898,0 2.44562,-0.131874 3.56397,-0.3555215 1.45589,-0.2911571 2.77969,-1.5712576 3.93466,-3.8045823 0.49866,-0.9643441 0.8525,-1.8918444 1.05848,-2.4887606 1.42062,1.0399417 1.60551,3.6613628 0.59095,8.1474458 -0.007,0.03134 -0.0136,0.06141 -0.0209,0.09312 -0.22149,0.969286 -0.94997,2.265114 -1.90275,3.645861 -0.0527,0.01935 -0.0818,0.03071 -0.0854,0.03198 l 0.0227,0.05896 c -2.19485,3.156858 -5.52597,6.728807 -6.65476,7.857601 -0.41526,0.415394 -0.62557,0.868979 -0.62521,1.348396 0,0.08031 0.006,0.157037 0.0173,0.230278 -1.42959,-0.334518 -3.26324,-0.592764 -5.3939,-0.866058 -1.47983,-0.189837 -2.87765,-0.369113 -3.89107,-0.586246 -1.40277,-0.300592 -3.95815,-1.510038 -6.66347,-2.790476 -4.42677,-2.095273 -9.44417,-4.470131 -12.75676,-4.635704 -5.108825,-0.253976 -15.091842,4.839918 -27.574062,14.038538 -0.111206,-0.106488 -0.246562,-0.249258 -0.400902,-0.421459 3.17217,-1.89746 6.12294,-3.834237 8.77278,-5.759106 6.010162,-4.366114 9.384754,-7.836855 11.848908,-10.370997 z M 140.42313,1.6969376 c -0.56343,1.7546909 -2.13908,5.3952728 -4.24032,5.8154955 -0.86885,0.173773 -8.32997,1.511948 -11.15134,-3.0750056 7.04303,-3.3001128 10.32494,-3.3017978 12.73597,-3.3017978 1.52992,0 2.31611,0.3472091 2.65569,0.5613079 z M 208.86899,132.30464 c -0.13,0.009 -0.9812,-0.0809 -4.95854,-2.9228 -2.29825,-1.64225 -5.29553,-3.95106 -8.9087,-6.86274 -4.98056,-4.0134 -9.7824,-8.08802 -11.47014,-9.52831 0.0336,-0.94569 -0.14253,-1.69818 -0.30533,-2.39248 -0.23102,-0.98547 -0.398,-1.69741 0.0939,-2.76308 1.72931,-3.74672 0.65537,-13.087443 0.60886,-13.483178 l -0.0245,-0.192684 -0.13455,-0.137178 c -0.0908,-0.09257 -2.20568,-2.308025 -0.4575,-5.804263 2.02282,-4.045753 2.65433,-13.81534 0.50193,-16.582902 -1.49192,-1.918291 -3.70289,-10.418111 -4.66353,-14.644601 l -0.007,-0.03261 -5.90109,-16.579081 -0.0309,-0.315536 -0.32768,-0.03552 c -0.23193,-0.150968 -2.388,-1.916782 -0.17897,-13.943732 1.08128,-5.886937 0.0327,-10.200144 -3.11712,-12.819768 -3.56038,-2.961216 -9.64412,-3.6892212 -18.08249,-2.164243 -4.01633,0.725869 -7.63702,1.817484 -9.70815,2.503588 0.6689,-1.104193 1.09195,-2.037198 1.26449,-2.79216 0.0309,-0.133898 0.0609,-0.268914 0.0908,-0.404502 0.005,-0.02244 0.01,-0.04433 0.0145,-0.06668 0.0245,-0.111313 0.0482,-0.222972 0.0718,-0.335194 0.006,-0.027981 0.0118,-0.055598 0.0173,-0.083488 0.02,-0.094353 0.0391,-0.1888235 0.0581,-0.2836305 0.0145,-0.07086 0.0282,-0.1407478 0.0418,-0.2107265 0.007,-0.036702 0.0145,-0.073313 0.0209,-0.1099691 0.70342,-3.6788859 0.58587,-6.0936218 -0.35402,-7.3568733 -0.42089,-0.5654641 -0.99232,-0.8990817 -1.70022,-0.99557179 -0.387,-0.33181976 -1.39872,-0.95243731 -3.55408,-0.95243731 -2.57514,0 -6.09958,-2.2466e-4 -13.7193,3.647097 -3.64934,1.0588129 -10.55477,-0.3198008 -10.62699,-0.3344034 -0.10529,-0.020895 -2.61626,-0.5040203 -5.84269,0.062229 -5.38336,0.944799 -8.447588,4.0584457 -10.076576,6.5262011 -0.496928,0.4831278 -1.0222,1.0234288 -1.627652,1.6461798 -2.405104,2.472418 -5.687809,5.847342 -11.476458,10.078101 -2.249163,-0.70756 -16.877877,-5.168031 -25.72165,-4.391052 -4.359262,0.383267 -9.058545,3.837607 -12.570734,9.240406 -3.299327,5.075585 -4.732195,10.602507 -3.733479,14.269149 -0.221063,0.112104 -0.488069,0.234093 -0.779338,0.367091 -3.720335,1.698863 -12.413699,5.669468 -8.53644,25.684019 -0.984001,1.565192 -3.096236,6.063181 -4.348254,11.058787 -1.148227,4.581562 -1.882634,10.87131 1.056229,15.0049 -0.969511,7.786096 -1.966768,17.399436 -1.291671,19.521216 0.661056,2.07808 4.06833,7.87561 5.749109,10.07388 -2.025966,1.0623 -2.460791,1.39053 -3.032321,2.87675 -0.08058,0.20931 -0.125695,0.23366 -0.605344,0.3265 -0.16355,0.0318 -0.349003,0.0672 -0.554569,0.12637 -0.862011,0.2461 -3.145886,2.02563 -3.766053,3.34482 -0.421908,0.20286 -1.447135,0.70479 -2.510329,1.29313 -2.570423,1.42242 -3.05018,2.05832 -3.180482,2.49281 l -0.03952,0.13154 0.02571,0.13491 c 0.124459,0.65391 0.128392,1.1006 0.117836,1.32188 -0.810901,0.77574 -4.788135,4.57169 -9.05248,8.4905 C 3.71079,150.27795 0.93502884,152.36187 2.4729522e-6,152.82939 L 0.50233762,153.83394 C 3.6363159,152.26707 18.06149,138.56686 21.074378,135.68968 c 14.781256,27.18271 26.57973,45.31597 33.895603,55.76559 4.731185,6.75772 8.248766,11.26087 10.343364,13.82355 -3.003002,1.54744 -19.710813,10.20014 -21.104928,11.87328 l 0.86291,0.71914 c 0.538172,-0.64583 6.568774,-4.29603 20.973729,-11.70581 0.973779,1.16788 1.487572,1.73267 1.502512,1.74896 l 0.343834,0.37574 0.407417,-0.30561 c 0.03116,-0.0236 3.127801,-2.34441 4.564825,-3.30236 1.250334,-0.84405 2.409905,-1.69425 3.432998,-2.4445 2.028999,-1.4878 3.78133,-2.77272 4.68232,-2.829 1.826582,-0.1142 3.354257,-1.55711 3.711912,-2.51078 0.141084,-0.37628 0.135361,-0.98086 -0.976926,-2.61221 -0.300028,-0.44015 -0.607814,-0.84823 -0.831904,-1.13599 l 1.24921,-1.13957 c 2.467306,2.87607 5.32181,2.77081 5.44818,2.76532 l 0.121316,-0.006 0.107952,-0.0554 c 1.985305,-1.02107 11.941138,-6.21898 12.975908,-8.28853 0.17724,-0.35448 0.71641,-1.43298 -0.40154,-6.61371 -0.4097,-1.89836 -0.89676,-3.67012 -1.10715,-4.41183 l 14.45584,-11.45553 c 0.84078,-0.14172 5.13388,-0.91503 10.56947,-2.76857 2.13527,-0.72832 4.09721,-1.50285 5.89964,-2.30106 1.35716,2.78621 6.47879,4.86834 9.9802,6.29177 l 0.35203,0.14317 c 2.79519,1.13869 3.76122,2.83362 3.99632,3.33943 0.0291,0.0956 0.0582,0.1628 0.0845,0.21204 l 0.01,0.03 c 0.18242,0.906 0.36112,7.16659 0.4437,11.44901 -0.35003,0.01 -0.59713,0.15771 -0.74103,0.27872 -0.67345,0.56633 -0.6808,1.80614 -0.47104,2.50562 0.3116,1.0387 2.27163,1.60675 5.20005,1.60675 1.19001,0 2.5401,-0.0938 4.00419,-0.28799 l 0.0491,-0.007 0.0472,-0.0154 c 2.48382,-0.79037 3.74954,-1.55947 4.10405,-2.49394 0.29116,-0.76747 -0.0918,-1.41006 -0.37156,-1.87926 -0.0709,-0.11855 -0.14299,-0.23992 -0.19014,-0.3414 0.0327,-0.11583 0.0636,-0.23756 0.0941,-0.36374 2.90202,2.51336 15.19407,13.25774 17.48636,16.8872 l 0.94974,-0.59986 c -2.58311,-4.09002 -16.61986,-16.20953 -18.19515,-17.56354 0.23265,-1.57699 0.32786,-3.57239 0.254,-5.61735 -0.0491,-1.3503 -0.24365,-4.48675 -1.01108,-6.15652 4.77949,-4.88879 8.92937,-10.40975 12.33833,-16.41531 2.78138,-4.8999 5.0784,-10.13173 6.82758,-15.55003 1.98047,-6.1353 2.89865,-11.51642 3.21845,-14.4819 1.6227,-2.3816 2.38654,-4.14247 2.69545,-5.52827 2.05449,1.74795 6.47711,5.48233 11.03396,9.152 11.37174,9.15773 13.66415,9.9656 14.43281,9.9656 0.0928,0 0.16343,-0.0118 0.22503,-0.0218 z M 94.914049,93.353445 c 1.435903,-2.375306 3.376947,-5.586118 3.27877,-10.124883 2.356661,0.407871 10.291251,2.040905 13.049371,5.912211 0.8376,1.175747 1.10992,2.422033 0.83224,3.810197 -0.65036,3.252034 -2.08763,5.758323 -4.27175,7.44899 -1.28448,0.99422 -2.46563,1.39928 -2.91584,1.52778 -4.80072,-2.761946 -9.920891,-5.921872 -10.94747,-6.881606 0.260274,-0.511009 0.596132,-1.06645 0.974679,-1.692689 z m 3.990149,6.335913 c 2.803622,1.707632 5.592862,3.310002 5.620722,3.325952 l 0.18296,0.10511 0.20677,-0.0418 c 0.0681,-0.0136 1.69223,-0.3503 3.52398,-1.75109 1.67269,-1.27909 3.85243,-3.732574 4.73725,-8.156659 0.33715,-1.685013 -0.006,-3.260655 -1.01956,-4.682964 -1.49139,-2.092465 -4.39229,-3.819859 -8.62214,-5.134445 -3.10578,-0.965131 -5.746307,-1.329862 -5.857285,-1.345027 l -0.681709,-0.09255 0.04542,0.686442 c 0.303881,4.558983 -1.576987,7.670158 -3.088257,10.169929 -0.453685,0.750661 -0.882387,1.459715 -1.183279,2.111444 l -0.101293,0.219484 0.08994,0.224572 c 0.114284,0.285438 0.326864,0.816887 6.146298,4.361619 z M 92.796763,47.916826 c -2.329142,0.668133 -4.884963,0.709471 -7.596471,0.123001 -4.449688,-0.962435 -7.884034,-3.325724 -8.231692,-3.570826 -0.316543,-0.30868 -3.571163,-3.590483 -2.931337,-7.292172 0.466277,-2.697131 2.877419,-5.024924 7.167149,-6.920363 6.778155,1.273474 11.618524,4.673447 14.493357,7.312953 2.509204,2.303755 3.998352,4.443285 4.509331,5.233968 -2.121443,2.591655 -4.612896,4.311186 -7.410337,5.113439 z m 3.692929,-11.14528 C 93.477591,33.998481 88.38639,30.42013 81.237325,29.120259 l -0.16782,-0.03043 -0.156591,0.06795 c -4.756453,2.067974 -7.442126,4.70164 -7.982429,7.827755 -0.771138,4.46092 3.128474,8.171258 3.294834,8.326947 l 0.05315,0.04388 c 0.150968,0.110088 3.75336,2.706006 8.649106,3.77358 1.358282,0.296322 2.682303,0.444265 3.964876,0.444265 1.455446,0 2.857421,-0.190732 4.193803,-0.571867 3.145999,-0.897287 5.921536,-2.852257 8.249446,-5.810666 l 0.23502,-0.298683 -0.18987,-0.329235 c -0.0645,-0.112332 -1.624061,-2.784411 -4.891149,-5.792244 z"
       id="path4509"
       inkscape:connector-curvature="0" />
  </g>
</svg>
