<?xml version="1.0" encoding="UTF-8" standalone="no"?>
<!-- Created with Inkscape (http://www.inkscape.org/) -->

<svg
   xmlns:dc="http://purl.org/dc/elements/1.1/"
   xmlns:cc="http://creativecommons.org/ns#"
   xmlns:rdf="http://www.w3.org/1999/02/22-rdf-syntax-ns#"
   xmlns:svg="http://www.w3.org/2000/svg"
   xmlns="http://www.w3.org/2000/svg"
   xmlns:sodipodi="http://sodipodi.sourceforge.net/DTD/sodipodi-0.dtd"
   xmlns:inkscape="http://www.inkscape.org/namespaces/inkscape"
   width="210mm"
   height="297mm"
   viewBox="0 0 210 297"
   version="1.1"
   id="svg8"
   inkscape:version="0.92.1 r15371"
   sodipodi:docname="philosophie.svg">
  <defs
     id="defs2" />
  <sodipodi:namedview
     id="base"
     pagecolor="#ffffff"
     bordercolor="#666666"
     borderopacity="1.0"
     inkscape:pageopacity="0.0"
     inkscape:pageshadow="2"
     inkscape:zoom="0.38347826"
     inkscape:cx="63.826613"
     inkscape:cy="712.79003"
     inkscape:document-units="mm"
     inkscape:current-layer="layer1"
     showgrid="false"
     inkscape:window-width="1600"
     inkscape:window-height="837"
     inkscape:window-x="-8"
     inkscape:window-y="-8"
     inkscape:window-maximized="1" />
  <metadata
     id="metadata5">
    <rdf:RDF>
      <cc:Work
         rdf:about="">
        <dc:format>image/svg+xml</dc:format>
        <dc:type
           rdf:resource="http://purl.org/dc/dcmitype/StillImage" />
        <dc:title />
      </cc:Work>
    </rdf:RDF>
  </metadata>
  <g
     inkscape:label="Ebene 1"
     inkscape:groupmode="layer"
     id="layer1">
    <path
       style="fill:#d1d1d1;stroke-width:1"
       d="m 95.338052,215.06391 c 0.06308,0.16882 0.09507,0.34829 0.09556,0.53935 0.0015,0.19698 -0.02862,0.37838 -0.08969,0.54328 -0.06117,0.16635 -0.145517,0.31138 -0.254181,0.43653 -0.107689,0.1247 -0.234775,0.22214 -0.382234,0.29297 -0.147459,0.0711 -0.306084,0.10674 -0.47634,0.1072 -0.170749,0.001 -0.330341,-0.0328 -0.478282,-0.10183 -0.147459,-0.0693 -0.276496,-0.16443 -0.385634,-0.28521 -0.10963,-0.12078 -0.195488,-0.26389 -0.258548,-0.42934 -0.06307,-0.16489 -0.09459,-0.34583 -0.09556,-0.54282 -0.0015,-0.19115 0.03008,-0.37108 0.09361,-0.53935 0.06354,-0.16927 0.149892,-0.31575 0.258055,-0.44045 0.107689,-0.12415 0.235258,-0.2236 0.382234,-0.29689 0.146976,-0.0729 0.303659,-0.11011 0.469066,-0.11157 0.170749,-4.9e-4 0.329848,0.0337 0.478283,0.10282 0.147459,0.0684 0.27552,0.1649 0.38515,0.28859 0.109138,0.12324 0.195487,0.26918 0.258547,0.43654 z m 51.129668,-79.52734 c -2.41858,2.68731 -6.54122,11.76595 -10.17878,19.77549 -2.13093,4.69259 -4.144,9.1252 -5.39112,11.30803 -3.3989,5.94846 -3.84372,23.04634 -3.85972,23.74727 l -0.58503,10.32575 0.073,0.004 c -3.68135,3.01181 -11.71271,5.74763 -28.691749,5.87182 -13.929375,-0.0898 -31.715084,-2.12949 -37.341939,-11.33812 -0.165895,-0.27115 -0.312873,-0.54377 -0.451119,-0.81541 1.579885,-7.09711 -0.810559,-19.72455 -2.145481,-24.39678 -1.719586,-7.12427 -0.536976,-22.48898 -0.524849,-22.64323 l 0.01313,-0.16781 -0.06208,-0.15669 c -0.06992,-0.17766 -6.913828,-17.97841 1.242685,-39.59668 7.094688,-15.848805 5.83204,-40.5701 5.817974,-40.830585 -0.01164,-0.154253 -1.11276,-15.575229 -0.26194,-31.144153 1.107908,-20.28481 4.933684,-31.6035171 11.064044,-32.7327686 1.824848,-0.3371218 3.353315,0.030081 4.666894,1.1210048 5.63025,4.6751407 5.673907,21.2777548 5.696705,30.1972898 0.0054,1.877234 0.01021,3.509022 0.06208,4.694057 -1.002647,1.552235 -6.206032,11.025239 -0.08541,32.445606 1.879661,5.884425 2.231824,11.848414 2.542757,17.110488 0.407464,6.900168 0.759626,12.859301 4.477229,16.145191 2.011116,1.77827 4.890512,2.6514 8.767709,2.6514 0.39921,0 0.81298,-0.0127 1.23354,-0.031 -1.87433,2.12026 -3.623986,4.91284 -4.899245,8.59745 -2.132383,6.16044 -3.542008,11.31288 -4.674169,15.45299 -1.266528,4.63052 -2.181861,7.97608 -3.339732,9.90617 -2.374921,3.95772 -4.17988,10.4645 -2.847383,14.72782 l 1.388767,-0.43417 c -1.162237,-3.71858 0.463241,-9.80673 2.706225,-13.5447 1.261192,-2.10182 2.198353,-5.52839 3.495926,-10.27145 1.126341,-4.11923 2.528689,-9.24598 4.64555,-15.36082 3.696741,-10.6789 11.548141,-13.3953 14.043851,-14.00165 1.38585,18.29358 15.21529,29.6152 15.35742,29.7292 l 0.91144,-1.1341 c -0.13873,-0.11203 -13.89589,-11.38953 -14.87526,-29.51189 l -0.0296,-0.54573 -0.5326,-0.1237 C 105.02934,98.510379 97.259436,92.086554 93.619928,83.801494 92.31896,80.84012 91.638402,77.815202 91.560305,74.887782 c 3.254844,3.624949 10.027445,8.415059 12.293705,9.386176 0.24447,0.104734 0.50011,0.15715 0.76594,0.15715 0.28861,0 0.58936,-0.06199 0.89835,-0.186226 3.88786,-1.563912 9.2911,-14.079291 9.89405,-15.501527 l -1.33929,-0.567984 c -1.57455,3.709358 -6.27733,13.584973 -9.09756,14.719073 -0.33421,0.134362 -0.49477,0.06475 -0.54861,0.04192 -3.37272,-1.445244 -10.998563,-7.653223 -12.816619,-10.189666 0.206641,-2.665966 0.934736,-5.212602 2.192047,-7.506031 12.500352,-5.343571 33.927992,10.196252 37.546632,14.539109 2.44333,2.931791 9.70585,12.612895 14.46733,18.999853 l 0.009,0.193517 c 0.0283,-7.4e-4 0.073,-0.006 0.1247,-0.0146 1.78119,2.389954 3.19518,4.295324 3.8476,5.174754 l -0.12807,0.11596 0.63498,0.53598 c 3.39843,2.86679 5.25771,6.30499 5.52644,10.21904 0.58302,8.49413 -6.35349,17.18859 -9.36289,20.5322 z m -18.00545,55.40996 c 0.82612,1.71328 1.60657,4.35839 0.38129,6.92443 -0.21102,0.44237 -0.49186,0.89494 -0.84982,1.34996 z m 2.78238,-2.52092 c 1.49791,1.80932 1.90101,4.64894 1.97523,6.7202 -1.78459,5.40421 -7.09664,14.63904 -34.772506,14.98005 -30.213297,0.37255 -39.972494,-11.44968 -42.893121,-17.03627 -0.450636,-2.37105 -1.026903,-8.16427 3.039956,-11.72326 0.06308,0.51174 0.121754,1.02544 0.174623,1.54011 l -0.109631,-0.0556 c -0.13776,0.27063 -3.327605,6.70226 0.579663,13.12027 4.787192,7.86401 17.769702,11.91923 38.595855,12.0536 18.505081,-0.13482 29.381391,-3.34362 32.327241,-9.538 2.23231,-4.69262 -0.93522,-9.31827 -1.58618,-10.19092 0.021,-0.43854 0.0474,-0.92988 0.0784,-1.47171 1.04145,0.23772 1.89615,0.7625 2.59029,1.60171 z m -28.55628,28.65184 -1.68272,-1.92623 -1.234025,2.24104 -0.957051,0.10336 1.661866,-2.91141 -2.31429,-2.56118 0.95705,-0.10236 1.75354,1.99657 1.2869,-2.32496 0.94978,-0.10192 -1.70698,2.99388 2.23522,2.49085 z m -6.520357,-0.67471 c -0.09701,0.25659 -0.236234,0.4812 -0.419588,0.6728 -0.181906,0.19352 -0.401158,0.34629 -0.657271,0.46224 -0.255148,0.11494 -0.540376,0.1741 -0.856159,0.1751 -0.321115,0.002 -0.609734,-0.0538 -0.866823,-0.1659 -0.256606,-0.11257 -0.475857,-0.26389 -0.658247,-0.45449 -0.181905,-0.19015 -0.323056,-0.41329 -0.422495,-0.66888 -0.09992,-0.2556 -0.150377,-0.52295 -0.151826,-0.80279 -9.7e-4,-0.27893 0.04613,-0.54664 0.14261,-0.80379 0.0975,-0.25705 0.237199,-0.4812 0.420071,-0.67326 0.182389,-0.19261 0.401158,-0.34638 0.657271,-0.46178 0.254665,-0.11495 0.540376,-0.17365 0.856642,-0.17557 0.3153,-0.001 0.601494,0.0538 0.858583,0.16636 0.256606,0.11258 0.477316,0.26434 0.661637,0.45404 0.184814,0.19114 0.327423,0.41329 0.426379,0.66943 0.09992,0.25568 0.150859,0.5224 0.152318,0.80278 0.0015,0.27893 -0.04658,0.5472 -0.143093,0.8038 z m -4.717904,-3.54155 -0.865292,-0.041 0.04676,-0.93861 0.8648,0.0419 z m -0.241493,4.72073 -0.852759,-0.041 0.196937,-4.05375 0.853242,0.041 z m -3.375142,-0.21585 -0.700933,-0.0866 -0.517579,-1.96309 -0.976453,1.78072 -0.700933,-0.0857 -1.209773,-4.23761 0.809104,0.0989 0.908545,3.37224 0.768359,-1.4237 -0.490897,-1.79526 0.692684,0.0848 0.307533,1.31989 0.609251,-1.20735 0.694143,0.0848 -0.903695,1.62501 0.403098,1.5663 1.686602,-3.05354 0.810072,0.099 z m -6.279764,-0.98422 -0.856158,-0.1916 1.036602,-4.6276 -1.795258,-0.40217 0.168325,-0.74946 4.437454,0.99392 -0.167349,0.74946 -1.787496,-0.39971 z M 59.267263,186.42661 c 0.16043,1.75306 0.158607,3.44403 -0.06745,4.97443 -0.682739,-1.87092 -0.434802,-3.60845 0.06745,-4.97443 z m 47.234277,-85.46027 c -0.72422,1.21463 -2.45593,2.58399 -4.10033,2.77365 -0.71742,0.0848 -7.100994,0.5729 -9.991548,-7.616129 -0.481674,-1.365976 -0.875557,-3.209734 -0.01313,-4.23857 1.065708,-1.272356 3.550255,-0.879452 3.575479,-0.875073 l 0.06208,-0.367171 c 2.922568,3.768539 6.727489,6.871555 11.016509,8.989386 l -0.23381,0.0936 c 0.10671,0.26635 -0.0111,0.730037 -0.3153,1.240327 z m -6.25115,-67.510601 c 5.2616,1.316005 7.61178,8.345692 8.3879,10.675501 0.52824,7.067523 0.99779,18.135934 0.1625,20.183429 C 103.513,62.596053 97.751778,61.860682 92.9869,64.009558 l -0.216828,0.09799 -0.117388,0.207125 c -1.280109,2.261414 -2.07466,4.753722 -2.396264,7.363418 l -0.45306,-0.113504 c -0.09411,0.376419 0.03737,0.858091 0.334214,1.408653 -0.228467,3.710327 0.481682,7.615652 2.150332,11.413781 0.789216,1.797198 1.772944,3.503685 2.90462,5.110734 -1.105967,-0.01365 -2.848351,0.189694 -3.906782,1.44746 -1.05067,1.248091 -1.133617,3.153462 -0.248357,5.662758 2.762494,7.826647 8.502856,8.619247 10.712853,8.619247 0.4031,0 0.6888,-0.0264 0.81784,-0.041 2.19398,-0.25323 4.26816,-1.93981 5.18349,-3.47459 0.31239,-0.52386 0.48993,-1.02641 0.54038,-1.49402 0.8906,0.39141 1.80011,0.7388 2.72369,1.04291 -2.07418,0.748 -5.07193,2.24831 -7.8776,5.17816 l -0.0539,-0.84062 c -4.427244,0.285 -7.559363,-0.44503 -9.57533,-2.2272 -3.264546,-2.8857 -3.600216,-8.564929 -3.988761,-15.14107 C 89.204297,82.88183 88.846312,76.820827 86.91766,70.783604 80.785844,49.323461 86.42725,40.160905 86.90165,39.445907 c 5.175251,-4.894393 9.665578,-6.912785 13.34874,-5.990175 z m 23.756,3.316449 c 5.22229,0.525336 8.48248,5.72678 10.64009,9.168862 0.308,0.491864 0.5903,0.941043 0.85127,1.334438 0.13582,0.290561 1.71231,3.95432 -1.4722,10.778821 -2.85802,6.124055 -5.24556,13.96333 -6.05659,16.747655 -2.98999,-2.31817 -7.07286,-5.038462 -11.63644,-7.339652 -1.87092,-0.942498 -3.96062,-1.883056 -6.15801,-2.676636 1.13216,-3.159285 0.14116,-17.663957 -0.0679,-20.52492 5.17428,-5.372676 9.84651,-7.897 13.89978,-7.488568 z m 24.08633,6.1226 c 7.89652,1.896638 12.50131,14.509522 12.84814,15.490342 1.17631,8.257893 -5.87764,38.834514 -10.12155,44.68401 -0.68246,-0.92067 -1.96406,-2.64705 -3.55364,-4.779911 0.67955,-0.534524 1.55029,-1.482383 2.53208,-3.181113 2.681,-4.638278 5.05641,-12.711841 7.06025,-23.997565 l -1.43292,-0.254182 c -3.5454,19.965631 -7.47886,25.011859 -9.03158,26.263836 -4.76099,-6.381635 -11.56366,-15.436989 -13.92646,-18.272243 -0.62477,-0.749461 -1.7579,-1.82388 -3.26697,-3.064214 0.57527,-2.015967 3.08992,-10.568784 6.14443,-17.114369 2.9473,-6.316628 2.12316,-10.21371 1.64973,-11.56658 3.85828,-3.630291 7.59091,-5.050587 11.09849,-4.208011 z m 3.7142,61.270622 c 4.84201,-6.267631 11.75091,-38.143766 10.56297,-46.062594 l -0.0301,-0.125153 c -0.0495,-0.145518 -1.2311,-3.603123 -3.50853,-7.373114 -3.10738,-5.142751 -6.60525,-8.212297 -10.39562,-9.124236 -3.93152,-0.945408 -8.02214,0.503022 -12.16855,4.305029 -0.12418,-0.196941 -0.2537,-0.403097 -0.38758,-0.617014 -2.16829,-3.458575 -5.79616,-9.247445 -11.72764,-9.844084 -4.35305,-0.437537 -9.21979,2.019361 -14.48866,7.305209 -1.10743,-3.128726 -3.71179,-9.247445 -9.05972,-10.585278 -3.912608,-0.977909 -8.47327,0.809588 -13.5777,5.314952 -0.01601,-0.952199 -0.01892,-2.073689 -0.02231,-3.29753 C 86.978292,24.261169 86.935121,7.8588895 80.781477,2.7486383 79.138532,1.3846112 77.166222,0.90147803 74.920817,1.316216 58.57044,4.3280381 62.745469,64.183214 62.930282,66.716754 c 0.01313,0.244474 1.255371,24.618945 -5.710772,40.183976 -7.947932,21.0619 -1.993167,38.64775 -1.312125,40.52209 -0.132427,1.76275 -1.123915,15.90604 0.581122,22.9663 0.617017,2.15954 1.348989,5.57882 1.881601,9.294 -2.809062,2.05817 -4.392342,5.24558 -4.57764,9.25132 -0.100898,2.1843 0.232832,4.04989 0.446268,4.98947 -0.01942,2.07952 0.04175,5.08358 0.329365,9.1354 0.06162,0.14557 1.388281,1.72735 3.871372,3.86215 0.155226,4.38168 0.241566,9.49386 -0.06836,11.87315 l 1.442609,0.18869 c 0.293952,-2.25365 0.252723,-6.71488 0.125637,-10.82345 6.947709,5.51722 20.382794,13.25464 38.836935,11.1693 14.282026,-1.61383 23.590586,-3.07488 29.124296,-6.70711 0.25614,1.23354 0.75184,3.95481 0.90415,7.15241 l 1.45377,-0.0693 c -0.19552,-4.09936 -0.92018,-7.37021 -1.07202,-8.01875 3.65407,-2.97156 5.28052,-7.24749 5.36977,-13.77464 l 0.0438,0.004 c 0.021,-0.18385 0.33809,-3.14473 -0.3245,-6.16287 -7.5e-4,-0.021 -0.001,-0.0337 -0.001,-0.0337 4.9e-4,0.011 4.9e-4,0.021 7.4e-4,0.0319 -0.33371,-1.5173 -0.91437,-3.05013 -1.90732,-4.25069 -0.9488,-1.1472 -2.16584,-1.8622 -3.62058,-2.14257 0.38321,-5.60212 1.30145,-14.31987 3.41395,-18.01613 1.28059,-2.24151 3.2141,-6.49852 5.45271,-11.42785 3.41589,-7.52252 7.66708,-16.88395 9.93479,-19.40391 3.13358,-3.48138 10.35487,-12.55613 9.73349,-21.60567 -0.28129,-4.09741 -2.12268,-7.70732 -5.47551,-10.73904 z"
       id="path4509"
       inkscape:connector-curvature="0" />
  </g>
</svg>
