<?xml version="1.0" encoding="UTF-8" standalone="no"?>
<!-- Created with Inkscape (http://www.inkscape.org/) -->

<svg
   xmlns:dc="http://purl.org/dc/elements/1.1/"
   xmlns:cc="http://creativecommons.org/ns#"
   xmlns:rdf="http://www.w3.org/1999/02/22-rdf-syntax-ns#"
   xmlns:svg="http://www.w3.org/2000/svg"
   xmlns="http://www.w3.org/2000/svg"
   xmlns:sodipodi="http://sodipodi.sourceforge.net/DTD/sodipodi-0.dtd"
   xmlns:inkscape="http://www.inkscape.org/namespaces/inkscape"
   width="210mm"
   height="297mm"
   viewBox="0 0 210 297"
   version="1.1"
   id="svg8"
   inkscape:version="0.92.1 r15371"
   sodipodi:docname="offers.svg">
  <defs
     id="defs2" />
  <sodipodi:namedview
     id="base"
     pagecolor="#ffffff"
     bordercolor="#666666"
     borderopacity="1.0"
     inkscape:pageopacity="0.0"
     inkscape:pageshadow="2"
     inkscape:zoom="0.38347826"
     inkscape:cx="257.48801"
     inkscape:cy="712.79003"
     inkscape:document-units="mm"
     inkscape:current-layer="layer1"
     showgrid="false"
     inkscape:window-width="1600"
     inkscape:window-height="837"
     inkscape:window-x="-8"
     inkscape:window-y="-8"
     inkscape:window-maximized="1" />
  <metadata
     id="metadata5">
    <rdf:RDF>
      <cc:Work
         rdf:about="">
        <dc:format>image/svg+xml</dc:format>
        <dc:type
           rdf:resource="http://purl.org/dc/dcmitype/StillImage" />
        <dc:title></dc:title>
      </cc:Work>
    </rdf:RDF>
  </metadata>
  <g
     inkscape:label="Ebene 1"
     inkscape:groupmode="layer"
     id="layer1">
    <path
       style="fill:#d1d1d1;stroke-width:1"
       d="m 177.2227,191.74642 c -5.7546,-3.15256 -12.45488,-6.99322 -14.88949,-8.5348 -3.59233,-2.27454 -5.39278,-2.80301 -9.5531,-2.80387 -7.52669,-0.002 -39.76112,-2.55242 -52.891966,-4.18545 -23.961854,-2.98009 -40.334118,-7.15211 -48.45224,-12.34686 -3.385304,-2.16622 -5.394535,-4.57694 -9.239476,-11.08631 -2.702349,-4.57498 -6.282785,-10.11367 -7.956473,-12.3082 -6.082628,-7.97537 -5.994477,-7.70674 -6.097337,-18.58705 -0.114472,-12.12084 0.880118,-17.18237 5.015508,-25.520668 5.960616,-12.01861 15.254599,-21.687881 24.982061,-25.990775 5.768321,-2.551609 14.1027,-4.601236 18.96619,-4.664231 3.570594,-0.046 3.895275,-0.200478 2.395053,-1.137279 C 78.546907,63.98487 75.207497,61.819182 72.0806,59.768353 66.982771,56.424888 65.622957,55.97511 58.922313,55.41632 54.81217,55.073504 49.144303,53.933421 46.327058,52.882767 43.426314,51.800923 37.293943,50.639818 32.187183,50.205547 27.227464,49.783727 21.019244,48.813566 18.391192,48.049557 7.67797,44.935145 5.6175492,34.984796 15.074408,32.032031 16.975483,31.438446 27.088552,30.781555 38.14384,30.533557 l 19.68445,-0.441611 -8.04468,-4.02718 C 41.149529,21.742512 38.020494,18.565651 38.020494,14.121738 c 0,-3.421459 3.154871,-7.4882534 5.809185,-7.4882534 2.464,0 14.556507,4.1148024 25.124613,8.5492904 4.253441,1.784782 8.245265,3.252548 8.870772,3.261695 0.660757,0.01023 1.137242,-1.126887 1.137242,-2.712813 0,-2.990069 2.744126,-6.3687145 5.172661,-6.3687145 2.817566,0 18.623103,18.6993875 30.868323,36.5199905 2.18808,3.184356 4.67223,5.114319 10.9178,8.482202 24.74833,13.345287 32.68735,21.554356 38.95032,40.275377 1.8029,5.389138 4.93336,12.783758 6.95659,16.432438 4.52926,8.16811 13.44593,17.76527 21.82462,23.49016 6.31764,4.31665 8.56378,7.02304 3.77232,4.54525 -5.1956,-2.68674 -15.59947,-11.59858 -19.9987,-17.13066 -6.09443,-7.66383 -10.39828,-15.76898 -13.90267,-26.181993 C 159.66573,84.332335 158.15582,81.513885 152.6382,75.476763 146.72021,69.00155 141.54672,65.224187 127.60973,57.20253 L 116.41571,50.759673 108.37936,39.449222 C 99.43407,26.859412 91.951353,18.198262 90.692101,18.976504 89.075002,19.975926 86.187418,18.285915 83.992043,15.055201 l -2.226184,-3.27617 -0.946873,2.490467 c -1.554195,4.087906 -1.165325,4.905763 3.861362,8.121344 4.65702,2.978997 10.255405,8.604512 9.407167,9.452702 -0.228936,0.228989 -1.995484,-1.162518 -3.92539,-3.092412 C 88.232219,26.821243 84.001564,23.922433 80.760681,22.309347 71.305053,17.603024 56.862373,11.861491 54.86903,12.016435 48.766185,12.49078 45.412386,12.42317 42.797009,11.77295 c -2.899351,-0.720715 -2.956907,-0.67498 -2.956907,2.351409 0,4.273698 3.159579,7.029805 13.654458,11.910805 7.083685,3.294534 9.862684,4.096813 15.459732,4.463068 4.651617,0.304302 9.171383,1.360723 14.199301,3.318672 8.145026,3.171812 21.417197,10.813463 22.002697,12.668322 0.20539,0.651526 -1.81673,-0.21353 -4.49421,-1.922636 -7.178517,-4.581878 -13.446484,-7.58952 -21.420291,-10.278368 -6.981197,-2.354121 -7.493146,-2.392665 -29.833302,-2.244804 -20.666892,0.136878 -22.896768,0.302269 -24.565109,1.822877 -3.381614,3.082265 -7.874902,4.832349 -11.073902,4.313249 -2.595157,-0.421124 -3.04356,-0.227973 -3.04356,1.311961 0,4.802432 7.147658,7.746668 21.835639,8.994494 4.862851,0.413101 11.030364,1.607412 14.100883,2.730485 3.001731,1.097907 8.479495,2.22473 12.1729,2.504052 6.296852,0.476272 6.825758,0.371594 8.488911,-1.67945 l 1.773715,-2.187314 -0.524198,2.423202 c -0.636901,2.943759 2.433724,5.843737 10.498302,9.914693 5.245514,2.647923 5.449576,2.674123 20.843892,2.674123 9.30874,0 15.33756,0.338054 15.02571,0.842788 -0.2867,0.463595 -2.66485,0.62739 -5.28515,0.36405 -6.72306,-0.675664 -36.613695,1.276782 -42.066802,2.747783 -14.239419,3.841111 -25.372162,13.338895 -32.630704,27.83852 -4.563092,9.115259 -4.978171,11.023589 -2.792211,12.837739 2.073045,1.72048 4.034188,5.87605 4.034188,8.54829 0,2.09843 0.346077,2.31974 3.626328,2.31974 3.183543,0 3.901373,-0.41663 5.878403,-3.41184 1.238658,-1.87648 2.88844,-5.22112 3.666178,-7.4325 1.361901,-3.87237 1.340558,-4.09891 -0.578114,-6.14125 -2.223243,-2.36654 -1.914716,-2.60535 1.409344,-1.09082 1.907012,0.8689 2.873248,0.67107 6.184095,-1.26626 2.158147,-1.262819 6.483852,-3.595419 9.612675,-5.18357 5.098843,-2.588091 5.631065,-3.117167 5.132811,-5.102457 -0.33859,-1.348858 -0.161539,-2.214956 0.45252,-2.214956 0.554689,0 1.008441,0.584882 1.008441,1.299748 0,4.307643 7.154719,5.333986 18.348866,2.632145 5.721089,-1.38084 6.375804,-1.772747 6.840093,-4.094166 0.282425,-1.411959 0.91724,-2.567186 1.410788,-2.567186 0.524739,0 0.660281,1.26358 0.326285,3.044647 -0.494776,2.636711 0.07056,3.995785 4.220336,10.143457 8.17926,12.117728 7.62457,10.566288 5.39833,15.099268 -1.7467,3.55659 -8.6007,12.79648 -17.95149,24.20049 -2.422172,2.95397 -3.126148,4.64429 -3.126148,7.506 0,2.03139 -0.317729,3.69346 -0.706439,3.69346 -0.388333,0 -0.549978,-1.6405 -0.358914,-3.64553 0.324683,-3.40678 0.147636,-3.72767 -2.705398,-4.89964 -1.6792,-0.68977 -6.103755,-1.7908 -9.832357,-2.44676 -5.862943,-1.03141 -7.953638,-1.97952 -15.466898,-7.01413 -4.778176,-3.20186 -10.206623,-6.60162 -12.063247,-7.55503 -3.341391,-1.71597 -9.11811,-2.13302 -13.287091,-0.95929 l -2.105618,0.59282 2.776646,2.66021 c 3.279823,3.14227 4.371492,7.64409 2.783439,11.47809 -0.944733,2.28073 -0.907611,2.99929 0.222517,4.30646 0.745913,0.86291 3.125773,4.63958 5.288573,8.39261 2.162746,3.75299 4.5747,7.59322 5.359873,8.53379 8.171879,9.78972 38.365701,15.80644 98.554812,19.63925 11.98053,0.76287 13.7414,1.08888 16.37673,3.03206 1.62404,1.19752 7.86582,4.74934 13.87062,7.89297 6.0048,3.14369 11.72541,6.27754 12.71245,6.9641 1.78629,1.24255 1.78629,1.24784 0,1.13986 -0.98704,-0.0599 -6.50294,-2.68786 -12.25754,-5.84044 z M 98.99246,125.77623 c 4.48633,-5.73067 8.63873,-11.96697 9.22754,-13.85841 1.01332,-3.25496 0.92275,-3.59573 -1.69283,-6.36872 -1.51996,-1.61137 -4.21541,-5.23842 -5.99003,-8.060107 l -3.226501,-5.130343 -6.21726,1.781825 c -4.71281,1.350644 -7.875116,1.667041 -13.068317,1.307527 l -6.851059,-0.474292 -9.047609,4.850847 -9.04761,4.850873 -2.538296,6.19339 c -1.396026,3.40635 -3.248799,6.98757 -4.11731,7.95831 -1.50247,1.67932 -1.495249,1.81453 0.148169,2.78657 0.949977,0.56192 6.183776,3.93665 11.630677,7.49939 8.863713,5.7977 10.735955,6.64262 17.833816,8.04842 4.361756,0.86387 8.544538,1.91964 9.295159,2.34614 1.768902,1.0052 3.43842,-0.67285 13.66141,-13.73142 z M 36.019661,133.856 c 0.221446,-2.58589 -0.299542,-3.78788 -2.72947,-6.2984 l -3.003174,-3.10262 -0.278146,3.83493 c -0.20754,2.85672 0.244982,4.54309 1.774465,6.61124 2.543912,3.44085 3.880405,3.11115 4.236378,-1.04515 z m -1.194424,-15.15954 c 0.520454,-1.35588 -3.039761,-8.34366 -4.25082,-8.34366 -0.851555,0 -1.02668,10.33015 -0.189353,11.16753 0.731576,0.73159 3.832477,-1.2406 4.440066,-2.82387 z M 20.506493,34.847831 c 1.626299,-0.991542 2.956907,-1.952414 2.956907,-2.135247 0,-0.452576 -8.255749,0.911319 -10.230211,1.690043 -0.872844,0.344259 -1.360456,0.992441 -1.083593,1.440395 0.869527,1.406976 5.278141,0.881952 8.356897,-0.995191 z m 69.373635,-18.0361 c 0,-1.110042 -5.362709,-6.028597 -5.941735,-5.449592 -0.6231,0.623122 3.974868,6.189183 5.112806,6.189183 0.455732,0 0.828929,-0.332867 0.828929,-0.739591 z M 49.572915,9.7273566 C 48.170524,8.9670604 45.714013,8.4927304 44.113977,8.6732953 l -2.909139,0.3283729 2.274538,1.0328098 c 1.251016,0.56807 3.707528,1.0424 5.458939,1.054093 l 3.184344,0.02086 z"
       id="path4509"
       inkscape:connector-curvature="0" />
  </g>
</svg>
