<?xml version="1.0" encoding="UTF-8" standalone="no"?>
<!-- Created with Inkscape (http://www.inkscape.org/) -->

<svg
   width="138.09949mm"
   height="41.702965mm"
   viewBox="0 0 138.09949 41.702965"
   version="1.1"
   id="svg1"
   xml:space="preserve"
   xmlns="http://www.w3.org/2000/svg"
   xmlns:svg="http://www.w3.org/2000/svg"><defs
     id="defs1" /><g
     id="layer1"
     transform="translate(-35.95025,-120.88028)"><path
       style="fill:#f0f4fa;fill-opacity:1"
       d="m 166.97524,157.8693 c -5.3e-4,-2.59267 -0.0397,-5.12383 -0.087,-5.62478 -0.0856,-0.90569 -0.0876,-0.9093 -0.35673,-0.64014 -0.30139,0.30138 -0.26318,0.30464 -2.40563,-0.20512 -0.77286,-0.18388 -1.5006,-0.41351 -1.6172,-0.51027 -0.13514,-0.11216 -0.21185,-0.40683 -0.2116,-0.81285 5.8e-4,-0.94967 0.28237,-3.07515 0.4492,-3.38818 0.18698,-0.35083 0.63695,-3.35508 0.64519,-4.30758 0.006,-0.67693 -0.0345,-0.76818 -0.57865,-1.30752 -0.56783,-0.56284 -1.52242,-1.79573 -2.26055,-2.91958 -0.45678,-0.69547 -1.12661,-2.30501 -1.22734,-2.94919 -0.11545,-0.73831 0.1807,-3.67216 0.47337,-4.68948 0.27295,-0.94877 1.24439,-2.86372 2.10148,-4.1425 0.94921,-1.41624 2.45439,-2.53254 3.51114,-2.60398 0.91419,-0.0618 1.11547,0.0118 1.79498,0.6562 0.37915,0.35956 0.84997,0.79555 1.04626,0.96885 0.1963,0.1733 0.54694,0.60198 0.77919,0.95262 0.40821,0.61628 0.42218,0.68837 0.41905,2.16231 -0.002,1.07317 -0.0838,1.82776 -0.27527,2.54773 -0.16522,0.62132 -0.27203,1.4642 -0.27203,2.14683 v 1.12388 l 0.53857,0.24286 c 0.29621,0.13357 0.74211,0.45287 0.9909,0.70956 0.42596,0.43947 0.44272,0.49333 0.28724,0.92329 -0.12398,0.34287 -0.1651,3.68495 -0.1651,13.41879 v 12.9622 h -1.78924 -1.78924 z m -1.42882,-7.29459 c -0.8473,-1.04119 -0.82145,-0.92528 -0.50463,-2.26196 0.15816,-0.66731 0.40729,-1.5849 0.55361,-2.03909 0.14632,-0.45419 0.39548,-1.38307 0.55368,-2.06418 0.1582,-0.6811 0.44657,-1.57916 0.64082,-1.99568 0.19425,-0.41653 0.35079,-0.92621 0.34786,-1.13264 -0.009,-0.66219 -0.72518,-2.76611 -1.20777,-3.54995 -0.25726,-0.41783 -0.46852,-0.82041 -0.46948,-0.89462 -0.002,-0.16804 -1.0748,-2.28937 -1.24781,-2.4678 -0.0697,-0.0719 -0.12678,-0.24224 -0.12678,-0.3785 0,-0.24191 0.1244,-0.29986 0.55736,-0.25961 0.11956,0.0111 0.35859,-0.23896 0.54396,-0.56909 0.18188,-0.32391 0.473,-0.79886 0.64694,-1.05544 0.37894,-0.55901 0.4218,-1.55035 0.11128,-2.57396 -0.24301,-0.80106 -0.27038,-1.86566 -0.0535,-2.0825 0.29383,-0.29383 0.53376,-0.0309 0.53376,0.58493 0,0.32656 0.12547,1.12206 0.27883,1.76776 0.15335,0.64571 0.34095,1.90479 0.41688,2.79795 0.2976,3.5005 0.29334,3.47185 0.52683,3.54 0.39538,0.11539 1.44881,0.12669 1.9152,0.0205 0.60647,-0.13804 0.41902,-0.35271 -0.73698,-0.84402 l -0.89008,-0.37829 0.0705,-0.87327 c 0.0387,-0.4803 0.10398,-1.28394 0.14495,-1.78587 0.041,-0.50193 0.16852,-1.35354 0.28344,-1.89246 0.11491,-0.53893 0.21015,-1.45871 0.21164,-2.04397 l 0.003,-1.0641 -0.66463,-0.77857 c -1.27177,-1.48981 -1.18043,-1.42883 -2.13793,-1.42734 -1.55797,0.002 -2.69486,0.77546 -3.49715,2.37792 -0.19758,0.39462 -0.49835,0.9033 -0.66839,1.13039 -0.43651,0.58298 -0.98112,1.69225 -1.16365,2.3701 -0.3049,1.13231 -0.41367,3.73544 -0.20225,4.84041 0.25853,1.35126 1.5508,3.45955 3.12156,5.09274 0.33554,0.34887 0.64906,0.74597 0.69672,0.88244 0.13257,0.37962 -0.23265,2.54912 -1.02695,6.10028 -0.0959,0.42892 -0.1197,1.06104 -0.0606,1.61263 l 0.0972,0.9072 0.98738,0.29698 c 0.54306,0.16335 1.11125,0.34702 1.26265,0.40816 0.49295,0.19907 0.52286,0.137 0.15298,-0.31752 z m 1.27658,-2.61504 c -0.0117,-1.68429 -0.0387,-3.00041 -0.0601,-2.92471 -0.0214,0.0757 -0.17562,0.57118 -0.3428,1.10107 -0.23325,0.73927 -0.82022,3.11678 -0.82022,3.32227 0,0.0181 0.24774,0.31925 0.55053,0.6691 0.3028,0.34985 0.55054,0.69426 0.55054,0.76536 0,0.0711 0.0322,0.12926 0.0717,0.12926 0.0394,0 0.0621,-1.37806 0.0504,-3.06235 z m 0.0141,-11.22526 c -8.2e-4,-0.2037 -0.0995,-0.68004 -0.2193,-1.05854 -0.11979,-0.37849 -0.25847,-1.18365 -0.30818,-1.78923 l -0.0904,-1.10107 -0.40143,0.683 c -0.22079,0.37565 -0.39819,0.84016 -0.39424,1.03225 0.01,0.47842 1.11106,2.79182 1.27941,2.68777 0.0746,-0.0461 0.13494,-0.25048 0.13412,-0.45418 z M 50.400554,157.97253 c 0,-2.38451 -0.05199,-4.33546 -0.115541,-4.33546 -0.06355,0 -0.186657,0.15608 -0.273576,0.34685 -0.434362,0.95332 -2.181767,0.55177 -2.616688,-0.60131 -0.0757,-0.20069 -0.31111,-1.03071 -0.523137,-1.84446 -0.212028,-0.81376 -0.433781,-1.47957 -0.492785,-1.47957 -0.059,0 -0.107281,0.0646 -0.107281,0.14353 0,0.079 -0.286463,0.44979 -0.636585,0.8241 -0.709098,0.75808 -1.209302,0.95729 -2.406702,0.95848 -0.636088,6.3e-4 -0.939739,-0.0912 -1.721311,-0.52087 -1.352411,-0.74339 -1.802302,-1.10718 -2.192363,-1.77277 -0.188744,-0.32206 -0.582611,-0.86222 -0.875259,-1.20035 -1.26573,-1.46244 -2.332876,-4.08082 -2.45294,-6.01861 -0.114711,-1.8514 0.0328,-2.66054 0.599332,-3.28763 0.448709,-0.49667 0.536345,-0.53272 1.518631,-0.62477 0.672276,-0.063 1.366621,-0.0358 1.955373,0.0766 1.34116,0.25598 1.615083,0.22578 2.977434,-0.32828 1.991707,-0.81001 2.833148,-1.2764 3.784924,-2.0979 1.005055,-0.86747 1.591455,-1.1709 2.892818,-1.49683 1.089559,-0.27289 1.594577,-0.13976 1.829357,0.48225 0.155273,0.41136 0.155924,0.41157 1.295062,0.41157 h 1.139711 v 13.35046 13.35046 h -1.789237 -1.789237 z m -0.677738,-5.07156 c 0.407293,-0.87037 0.788142,-2.50259 0.622567,-2.66817 -0.151563,-0.15156 -0.385456,0.19561 -0.64111,0.95162 -0.260727,0.77101 -0.571221,1.10256 -0.809448,0.86433 -0.09087,-0.0909 -0.04947,-0.57622 0.123001,-1.44206 0.169178,-0.8493 0.293043,-2.26957 0.354671,-4.06673 0.102416,-2.98667 -0.0081,-4.01723 -0.52087,-4.85845 -0.269593,-0.44225 -0.310182,-0.45931 -0.900049,-0.37846 -0.339747,0.0466 -0.886449,0.21887 -1.214891,0.3829 -0.713631,0.35641 -2.928464,2.59933 -3.239109,3.28019 -0.840468,1.84211 -0.979031,2.07753 -1.197185,2.03401 -0.168902,-0.0337 -0.215767,-0.1671 -0.183883,-0.52348 0.09753,-1.09017 0.04705,-1.77828 -0.211793,-2.88686 l -0.273155,-1.16989 -0.829445,0.0463 c -1.219488,0.068 -2.024174,-0.41157 -1.526123,-0.90962 0.10966,-0.10966 0.473644,-0.13508 1.135478,-0.0793 1.292856,0.10895 2.28751,-0.15628 3.950259,-1.05338 1.332795,-0.71908 2.310897,-1.5541 3.361195,-2.86951 0.554453,-0.69441 1.808586,-1.6296 2.677628,-1.99668 0.477111,-0.20153 0.478044,-0.20358 0.0976,-0.2147 -0.745725,-0.0218 -2.099927,0.53093 -2.8322,1.15599 -0.390147,0.33302 -0.890514,0.73449 -1.111928,0.89215 -0.528815,0.37655 -2.133527,1.16026 -2.828698,1.38149 -0.302794,0.0964 -0.842667,0.32157 -1.199718,0.50049 -0.764907,0.38328 -1.071931,0.39695 -2.447573,0.10898 -1.108972,-0.23214 -2.058432,-0.17396 -2.575179,0.15782 -0.44538,0.28596 -0.728027,1.40814 -0.728027,2.89046 0,2.1686 0.703624,3.8896 2.423597,5.92792 2.013844,2.38657 2.639161,2.83117 3.990738,2.83741 0.784195,0.004 1.897439,-0.46726 2.199109,-0.93019 0.36608,-0.56177 0.469528,-1.46518 0.302471,-2.64147 -0.193366,-1.36154 -0.05323,-2.17621 0.374354,-2.17621 0.250767,0 0.277242,0.0991 0.297464,1.11404 0.01647,0.82649 0.118303,1.37715 0.394517,2.13333 0.204776,0.5606 0.586929,1.79346 0.849228,2.73969 0.351513,1.26806 0.566449,1.80185 0.817452,2.03011 0.579284,0.52677 0.841973,0.41271 1.299059,-0.56406 z m 0.708648,-9.20794 c 0.03069,-5.49997 0.0069,-7.13062 -0.105742,-7.24325 -0.148301,-0.1483 -1.619829,1.0156 -2.106585,1.66619 -1.08971,1.4565 -2.275723,2.40326 -4.185016,3.34077 -0.587147,0.28831 -1.136321,0.60707 -1.220386,0.70836 -0.167436,0.20175 -0.112053,1.89209 0.06789,2.07204 0.05905,0.059 0.174771,-0.016 0.257161,-0.16676 0.329022,-0.60208 2.67359,-2.77168 3.339211,-3.09001 0.817533,-0.39098 2.296594,-0.54516 2.623907,-0.27351 0.55264,0.45865 1.146643,2.94055 1.077042,4.50016 -0.174486,3.90991 -0.173742,4.02576 0.02587,4.02576 0.165477,0 0.200519,-0.85649 0.22665,-5.53975 z m 29.148763,17.13539 c 0.01227,-0.81375 0.0138,-3.39955 0.0034,-5.7462 -0.01721,-3.88083 -0.03711,-4.22309 -0.22003,-3.78493 -0.212857,0.50985 -0.846536,0.96378 -1.344238,0.96292 -0.492887,-8.5e-4 -1.196032,-0.52333 -1.417443,-1.05324 -0.172192,-0.41211 -0.183153,-0.7001 -0.06406,-1.683 0.230018,-1.89832 0.262659,-2.49296 0.140969,-2.56817 -0.06274,-0.0388 -0.184353,0.0608 -0.27026,0.22135 -0.189843,0.35473 -1.494948,0.95456 -2.076905,0.95456 -0.91717,0 -1.892329,-0.41051 -2.490056,-1.04824 -0.722338,-0.77068 -1.620786,-2.11122 -1.621365,-2.41917 -2.4e-4,-0.12817 -0.18243,-0.77849 -0.404866,-1.44516 -0.588819,-1.76477 -0.743815,-2.87346 -0.658389,-4.70949 0.06137,-1.31905 0.145886,-1.78689 0.488381,-2.7035 0.227791,-0.60964 0.545843,-1.3316 0.706782,-1.60438 0.306475,-0.51943 0.990687,-0.93448 1.540496,-0.93448 0.572539,0 2.210108,0.53328 2.764837,0.90038 0.49941,0.3305 0.53283,0.39287 0.462583,0.8634 -0.223711,1.49845 -0.23711,1.80216 -0.09151,2.07421 0.29415,0.54963 1.13655,0.28025 2.342387,-0.74904 1.293142,-1.1038 2.167115,-1.6008 3.262998,-1.85555 1.166874,-0.27126 1.762435,-0.18739 2.282337,0.32138 l 0.309903,0.30327 -0.0395,13.59132 -0.0395,13.59132 h -1.794623 -1.794624 z m -0.740098,-9.97844 c 0,0 1.289285,-1.0621 1.289285,-1.48761 0,-0.25232 -0.04104,-0.2763 -0.266417,-0.15569 -0.14653,0.0784 -0.440721,-0.14022 -0.65376,0.1609 -0.359252,0.50779 -0.86906,0.74602 -0.86906,0.40611 0,-0.081 0.268465,-0.59196 0.596587,-1.13548 0.328123,-0.54352 0.895432,-1.79337 1.260688,-2.77745 0.365255,-0.98408 0.813977,-2.0911 0.99716,-2.46005 0.449342,-0.90502 0.758425,-2.44675 0.643782,-3.21125 -0.111303,-0.74222 -0.354444,-0.8663 -1.697574,-0.8663 -0.851563,0 -1.068073,0.0658 -2.450026,0.74399 -1.250044,0.6135 -1.703449,0.92731 -2.58518,1.78924 -0.588096,0.57488 -1.124777,1.04525 -1.192625,1.04525 -0.214462,0 -0.302796,-0.44119 -0.13464,-0.67247 0.54829,-0.7541 0.707115,-1.10518 0.707573,-1.56408 4.98e-4,-0.49957 -0.01515,-0.51612 -0.488038,-0.51612 -1.011899,0 -1.804649,-0.71655 -2.326433,-2.1028 -0.395923,-1.05187 -0.452923,-1.90758 -0.144137,-2.16385 0.336755,-0.27948 0.619351,0.0712 0.619351,0.76868 0,0.8678 0.484462,2.05584 0.983135,2.41092 0.921089,0.65588 3.329486,0.16773 5.104794,-1.03466 0.903078,-0.61164 2.584572,-1.62073 3.133523,-1.88047 0.189246,-0.0896 0.548304,-0.2631 0.797907,-0.38568 l 0.453823,-0.22287 -0.297029,-0.24086 c -0.377305,-0.30595 -0.530264,-0.30233 -1.783269,0.0423 -0.716405,0.19703 -1.259696,0.45903 -1.786471,0.86155 -2.72891,2.08521 -3.863959,2.37982 -4.410311,1.1447 -0.232016,-0.52451 -0.243307,-0.68733 -0.100804,-1.45361 0.156401,-0.841 0.151927,-0.8695 -0.176016,-1.12157 -0.528499,-0.40622 -1.598514,-0.71679 -2.127576,-0.61754 -1.310243,0.2458 -2.537189,3.87993 -2.140388,6.33969 0.289436,1.7942 1.553167,5.05248 2.260639,5.8286 0.386285,0.42377 1.169678,0.81845 1.836024,0.925 1.457856,0.23312 2.498859,-0.64677 2.883638,-2.43737 0.257584,-1.19868 0.690262,-2.08805 1.049491,-2.15724 0.295317,-0.0569 0.320532,0.40161 0.04618,0.83957 -0.323768,0.51684 -0.47494,1.58316 -0.579804,4.08976 -0.144656,3.4578 -0.156499,3.29896 0.273538,3.66886 0.206219,0.17738 0.420056,0.32251 0.475194,0.32251 0.05514,0 0.797246,-0.72261 0.797246,-0.72261 z m -1.943203,-11.20131 c 0.424991,-0.19456 2.423699,-1.20632 2.396884,-1.23313 -0.02682,-0.0268 -2.230158,0.97597 -2.851627,1.21321 -0.864392,0.32997 -1.129945,0.49251 -1.129945,0.6916 0,0.24874 0.01797,0.24746 0.405988,-0.0288 0.223293,-0.159 0.753708,-0.44828 1.1787,-0.64285 z m 29.884774,22.55434 c -0.0357,-0.0577 -0.0406,-2.11708 -0.011,-4.57632 0.0296,-2.45924 0.0243,-4.56424 -0.012,-4.67779 -0.0512,-0.16062 -0.34455,-0.21297 -1.32101,-0.23576 -0.80024,-0.0187 -1.36196,-0.0993 -1.54984,-0.22238 -0.37552,-0.24606 -0.84146,-1.70678 -1.03921,-3.25798 -0.082,-0.64343 -0.30227,-1.60343 -0.48943,-2.13332 -0.18716,-0.52989 -0.34159,-1.21519 -0.34319,-1.52288 -0.003,-0.49389 -0.0553,-0.58477 -0.45021,-0.77545 -0.24602,-0.1188 -0.91672,-0.58771 -1.49044,-1.04204 -0.573724,-0.45433 -1.25501,-0.9345 -1.513971,-1.06706 -0.871778,-0.44624 -1.455568,-1.01189 -1.894741,-1.83586 l -0.436685,-0.81931 0.127036,-1.463 c 0.08486,-0.97736 0.215893,-1.63265 0.394713,-1.97405 0.147223,-0.28107 0.546446,-1.04411 0.887161,-1.69564 1.271938,-2.43227 2.987247,-4.15192 5.164687,-5.17776 1.48408,-0.69918 2.26047,-0.80472 3.01452,-0.40977 0.48229,0.2526 1.46582,1.98655 1.63335,2.87957 0.0844,0.44988 0.0441,0.55734 -0.36638,0.9761 -0.25367,0.25881 -0.6625,0.57345 -0.90852,0.6992 -0.68603,0.35067 -0.53949,0.49684 0.49809,0.49684 1.16365,0 3.32792,0.36338 3.56464,0.5985 0.1387,0.13777 0.17382,2.94002 0.17086,13.63469 -0.002,7.40372 -0.0378,13.51645 -0.0795,13.58387 -0.0921,0.149 -3.45746,0.16569 -3.54899,0.0176 z m -0.53631,-10.16667 c 1.29457,0.0381 0.58082,-0.79353 0.58082,-0.79353 l -1.0952,-0.32961 0.67152,-3.16608 c 1.05921,-4.99399 -0.43506,-6.12846 -1.91244,-7.76227 -0.90475,-1.00055 -1.82648,-1.59667 -3.06185,-1.98022 -0.43527,-0.13514 -0.7914,-0.31491 -0.7914,-0.39949 0,-0.28967 0.33044,-0.48411 0.82271,-0.48411 0.45763,0 1.04801,-0.28135 1.26629,-0.60346 0.0513,-0.0757 -0.13448,-0.2409 -0.4129,-0.36704 -0.73356,-0.33233 -1.01971,-0.7202 -1.08529,-1.47111 -0.0757,-0.86742 0.24118,-1.43269 1.2806,-2.28401 0.72752,-0.59586 1.98809,-1.33026 2.28336,-1.33026 0.0615,0 0.11187,0.11445 0.11187,0.25433 0,0.16469 -0.41731,0.54062 -1.18407,1.06666 -0.82049,0.56289 -1.29126,0.99513 -1.53312,1.40762 l -0.34903,0.5953 0.27439,0.36814 c 0.68721,0.92201 1.97223,1.18247 5.14576,1.04301 1.19196,-0.0524 2.24899,-0.1458 2.34896,-0.20758 0.52698,-0.32569 -0.96682,-0.67052 -2.91365,-0.67259 -1.21389,-0.001 -3.04506,-0.29854 -3.12517,-0.5073 -0.11537,-0.30063 0.21076,-0.56749 0.86375,-0.70675 0.33572,-0.0716 0.95091,-0.33656 1.36709,-0.5888 0.65154,-0.39487 0.75651,-0.51672 0.75535,-0.87683 -0.002,-0.68343 -0.60548,-1.81425 -1.10596,-2.07306 -0.53099,-0.27458 -1.05097,-0.20788 -2.40235,0.30819 -1.06124,0.40527 -1.46621,0.6496 -2.45008,1.47823 -0.886071,0.74627 -1.513874,1.64068 -2.369401,3.37561 -1.774724,3.59897 -1.714503,4.66822 0.359091,6.37574 0.96914,0.79804 3.42712,2.55403 3.69333,2.63852 0.2899,0.092 0.55846,0.8019 0.55984,1.47986 4.2e-4,0.20658 0.15825,0.84471 0.35072,1.41807 0.19247,0.57336 0.38377,1.45724 0.42512,1.96418 0.0414,0.50693 0.19794,1.30681 0.34798,1.7775 0.29311,0.91955 0.19524,0.85069 1.49199,1.04962 0.18925,0.029 0.37505,0.0604 0.4129,0.0696 0.0379,0.009 0.20817,-0.0205 0.37849,-0.0661 z m 0.0756,-15.36262 c -0.0318,-0.0568 -0.59312,-0.10323 -1.24741,-0.10323 -1.1516,0 -1.20413,0.0141 -1.64348,0.4399 -0.24963,0.24195 -0.45387,0.51988 -0.45387,0.61763 0,0.0977 0.23226,0.32574 0.51613,0.50666 0.58545,0.37311 2.23098,2.04516 2.52415,2.56482 0.1757,0.31145 0.20209,0.14176 0.2782,-1.78924 0.0462,-1.17332 0.0581,-2.17977 0.0263,-2.23654 z m 29.93937,21.40203 c -0.0244,-4.45546 -0.0346,-5.21223 -0.084,-6.24821 l -0.0305,-0.63963 -0.86021,-0.15154 c -1.18859,-0.20939 -1.86584,-0.41046 -1.97446,-0.58621 -0.20386,-0.32985 -0.34637,-1.23763 -0.46333,-2.9514 -0.0677,-0.99157 -0.22546,-2.15513 -0.35064,-2.58571 -0.14614,-0.50272 -0.19508,-0.97523 -0.13675,-1.32044 0.0766,-0.45342 0.0427,-0.57654 -0.21654,-0.78633 -0.16904,-0.1368 -0.74679,-0.64768 -1.28387,-1.13529 -1.13066,-1.02651 -1.15995,-1.05138 -2.09846,-1.78133 -0.98054,-0.76267 -1.46171,-1.77456 -1.53676,-3.23185 -0.0529,-1.02775 -0.03,-1.13328 0.45266,-2.08421 0.42218,-0.83177 0.77098,-1.24537 2.05666,-2.43876 0.85154,-0.79042 1.89979,-1.64864 2.32945,-1.90717 0.67252,-0.40465 0.80257,-0.55182 0.93483,-1.0579 0.0845,-0.32333 0.32565,-0.82533 0.5359,-1.11556 0.52776,-0.72856 0.99731,-0.80129 2.248,-0.34823 0.54058,0.19583 1.4594,0.50817 2.04181,0.6941 1.52826,0.48788 1.80137,0.79303 2.07728,2.32098 0.29432,1.62991 0.19836,2.35171 -0.35763,2.68983 -0.22866,0.13906 -0.65346,0.29299 -0.94399,0.34208 -0.29054,0.0491 -0.49892,0.1367 -0.46307,0.1947 0.0359,0.058 0.43819,0.24146 0.8941,0.40769 0.97179,0.35433 1.17383,0.6363 1.03111,1.43899 -0.0557,0.31333 -0.12413,6.40708 -0.15203,13.54166 l -0.0507,12.97197 h -1.78785 -1.78785 z m -0.25206,-8.00031 c 0,-0.14213 -0.0929,-0.33552 -0.20645,-0.42976 -0.26968,-0.22381 -0.27237,-1.42587 -0.005,-2.45753 0.11053,-0.42727 0.26618,-1.45814 0.3459,-2.29083 0.0797,-0.83268 0.23482,-1.88558 0.34467,-2.33977 0.29877,-1.23527 0.25573,-1.72673 -0.25787,-2.94451 -0.71502,-1.6954 -2.17811,-3.19898 -3.47323,-3.56937 -1.21187,-0.34657 -1.13928,-0.93037 0.0983,-0.79035 0.66069,0.0748 0.90048,0.0402 1.36518,-0.19691 0.31005,-0.15818 0.59913,-0.37987 0.64241,-0.49266 0.0433,-0.11278 -0.13536,-0.55901 -0.39698,-0.99162 -0.26163,-0.43261 -0.55829,-1.00334 -0.65925,-1.26828 -0.35951,-0.94344 -0.83235,-1.78921 -0.99947,-1.78779 -0.45904,0.004 -3.14686,2.52283 -4.11061,3.85229 -0.67375,0.92943 -0.87121,2.64561 -0.40839,3.54955 0.37468,0.73181 2.37131,2.69699 4.53772,4.46626 0.2464,0.20123 0.29351,0.38823 0.29476,1.16989 8.2e-4,0.51171 0.0937,1.23441 0.20646,1.60601 0.11454,0.37759 0.20496,1.20778 0.20496,1.88196 0,1.20016 0.20897,2.52151 0.44896,2.83882 0.13417,0.1774 1.0246,0.41392 1.64995,0.43827 0.28374,0.011 0.37849,-0.05 0.37849,-0.24367 z m -0.33253,-13.53253 c -0.14716,-0.92027 -0.43369,-1.12749 -1.00536,-0.72708 -0.29759,0.20844 -0.29713,0.20966 0.27905,0.75355 0.31742,0.29962 0.63149,0.54631 0.69794,0.5482 0.0665,0.002 0.0792,-0.25671 0.0284,-0.57467 z m 3.4981,-1.07699 c 0,-0.0961 -1.66601,-0.95993 -1.85133,-0.95993 -0.1938,0 -0.82533,-0.75871 -1.10749,-1.33051 -0.56848,-1.15205 -1.03785,-2.70977 -0.85209,-2.82788 0.25313,-0.16095 0.45625,-0.13002 1.01959,0.15524 0.28621,0.14492 0.81081,0.3925 1.16578,0.55017 0.35498,0.15768 0.68406,0.34922 0.7313,0.42565 0.17728,0.28685 -0.34198,0.28338 -1.0165,-0.007 -0.73258,-0.31515 -1.1172,-0.28846 -1.1172,0.0775 0,0.30729 0.33378,0.91546 0.66883,1.21868 0.26072,0.23595 0.35881,0.24301 1.192,0.0858 1.2155,-0.22935 1.39408,-0.48621 1.22227,-1.75797 -0.1172,-0.86753 -0.15406,-0.93718 -0.67451,-1.27461 -0.5942,-0.38525 -2.65017,-1.33963 -3.27265,-1.51916 -0.52409,-0.15115 -1.19094,0.10508 -1.3479,0.51792 -0.0703,0.18489 -0.12781,0.6484 -0.12781,1.03004 0,0.5978 0.15723,1.00153 1.13549,2.91575 0.62451,1.22203 1.19741,2.37671 1.27311,2.56596 0.12568,0.31423 0.22718,0.35005 1.16988,0.4129 1.01369,0.0676 1.78923,-0.0533 1.78923,-0.27877 z m -100.342937,2.63384 c -1.092472,-0.35685 -1.452115,-1.084 -1.330628,-2.69033 0.100784,-1.33259 0.467143,-2.16141 1.085007,-2.4546 1.940393,-0.92078 3.5838,-0.50094 4.183249,1.0687 0.47783,1.25118 -0.179415,3.01856 -1.385339,3.72528 -0.623441,0.36536 -1.949823,0.54774 -2.552289,0.35095 z m 2.072262,-0.90977 c 0.564884,-0.29212 1.062009,-0.99969 1.230464,-1.75137 0.169257,-0.75526 0.03717,-1.22169 -0.507705,-1.79284 -0.305903,-0.32066 -0.47349,-0.37849 -1.096734,-0.37849 -0.40461,0 -0.941232,0.0859 -1.192492,0.19087 -1.164479,0.48655 -1.549324,2.22079 -0.774647,3.49082 0.259534,0.42549 0.31356,0.44731 1.107504,0.44731 0.472467,0 1.00778,-0.0895 1.23361,-0.2063 z M 142.27245,134.4966 c -0.77112,-0.38461 -1.56369,-1.20105 -1.72315,-1.77504 -0.0743,-0.26759 -0.13414,-0.85814 -0.13288,-1.31233 0.003,-0.93362 0.19217,-1.26376 0.95961,-1.67115 0.66752,-0.35435 2.89685,-0.36509 3.53305,-0.017 0.75181,0.41132 1.47312,2.36156 1.23069,3.32749 -0.11176,0.4453 -0.83329,1.27307 -1.33649,1.53329 -0.55931,0.28922 -1.86844,0.24513 -2.53083,-0.0852 z m 2.35788,-0.69108 c 0.57288,-0.35407 0.7524,-0.67339 0.76181,-1.35515 0.0167,-1.20792 -0.59834,-2.05838 -1.70376,-2.35604 -0.48357,-0.13021 -0.67659,-0.10972 -1.33313,0.14152 -1.26751,0.48505 -1.43178,0.79396 -1.12506,2.11571 0.31872,1.3735 2.21695,2.18521 3.40014,1.45396 z m -69.968447,-0.0845 c -0.395357,-0.11639 -0.952774,-0.41397 -1.238702,-0.66129 -0.494747,-0.42795 -0.519653,-0.48945 -0.515357,-1.27261 0.0036,-0.65734 0.09846,-1.00802 0.471401,-1.74277 0.256787,-0.50591 0.683343,-1.10989 0.9479,-1.34218 0.464633,-0.40795 0.516544,-0.42021 1.524287,-0.35999 1.74733,0.10442 2.639875,0.77108 2.842644,2.12324 0.162746,1.08527 -0.538152,2.32723 -1.661738,2.94453 -0.896729,0.49266 -1.489423,0.57044 -2.370435,0.31107 z m 1.707716,-0.73774 c 0.846943,-0.32 1.557338,-1.28193 1.557338,-2.10877 0,-1.0452 -0.57388,-1.64029 -1.752243,-1.817 -0.751203,-0.11265 -1.275359,0.10116 -1.874896,0.76477 -0.508836,0.56322 -0.7226,1.41697 -0.565055,2.25675 0.07553,0.40263 0.188513,0.52009 0.730033,0.759 0.717127,0.3164 1.328473,0.36301 1.904823,0.14525 z m 33.075431,0.30979 c -0.99276,-0.40338 -1.20871,-0.59199 -1.67113,-1.45957 -0.59373,-1.11397 -0.60844,-1.83595 -0.0493,-2.42048 0.2271,-0.2374 0.59871,-0.54598 0.82581,-0.68573 0.60589,-0.37287 2.10515,-0.72598 2.6491,-0.62393 1.07009,0.20074 2.34575,2.0075 2.19755,3.11244 -0.22749,1.69606 -2.26042,2.76461 -3.95204,2.07727 z m 1.72042,-0.59026 c 0.65628,-0.17888 1.13831,-0.58574 1.38813,-1.17168 0.26712,-0.6265 0.0196,-1.36542 -0.69769,-2.0827 -0.55829,-0.55829 -0.62353,-0.5854 -1.40866,-0.5854 -0.6919,0 -0.91207,0.0643 -1.37983,0.40318 -0.64745,0.46901 -0.9987,0.92566 -0.9987,1.29838 0,0.42077 0.57928,1.46574 0.96465,1.74015 0.31468,0.22407 1.07049,0.50489 1.44394,0.53648 0.0757,0.006 0.38537,-0.0559 0.68816,-0.13841 z m 58.72072,-6.46445 c -0.99408,-0.39815 -1.94685,-1.52585 -1.94685,-2.30429 0,-1.21874 1.95805,-3.05379 3.25849,-3.05379 0.51362,0 1.94476,0.80899 2.33407,1.31941 1.03469,1.35655 0.46749,3.14666 -1.24319,3.92355 -0.60776,0.27601 -1.85198,0.33563 -2.40252,0.11512 z m 2.11334,-0.80104 c 0.84008,-0.38772 1.19854,-0.85622 1.27659,-1.66848 0.0657,-0.6834 0.0531,-0.71234 -0.56522,-1.30482 -0.74084,-0.70984 -1.32875,-0.87133 -2.24166,-0.61573 -0.71158,0.19923 -1.20536,0.72683 -1.58516,1.69373 -0.24021,0.61151 -0.23938,0.62631 0.0563,1.00953 0.84798,1.09917 1.92263,1.41033 3.05918,0.88577 z"
       id="path1" /></g></svg>
